<svg xmlns="http://www.w3.org/2000/svg" viewBox="0 0 81.16 81.16"><defs><style>.cls-1{fill:#fff;}.cls-2{fill:none;stroke:#1b8dc4;stroke-miterlimit:10;}.cls-3{fill:#1b8dc4;}</style></defs><title>资源 7</title><g id="图层_2" data-name="图层 2"><g id="Fitnessveranstaltung_gelb" data-name="Fitnessveranstaltung gelb"><g id="Text_unten" data-name="Text unten"><circle class="cls-1" cx="40.58" cy="40.58" r="40.58"/><circle class="cls-2" cx="40.58" cy="40.58" r="37.85"/><path class="cls-3" d="M45.6,28.58A14.45,14.45,0,1,0,56.17,46.06l-14-3.45Z"/><path class="cls-3" d="M47.4,27.33,44,41.28l12.09-7.76A14.36,14.36,0,0,0,47.4,27.33Z"/><path class="cls-3" d="M59.11,45.81a14.39,14.39,0,0,0-1.91-11.3l-12.1,7.76,0,.08Z"/><circle class="cls-3" cx="34.74" cy="62.69" r="5.1" transform="translate(-34.44 81.43) rotate(-76.16)"/><circle class="cls-3" cx="29.25" cy="23.51" r="7.39" transform="translate(-0.57 46.29) rotate(-76.17)"/><circle class="cls-3" cx="64.87" cy="39.89" r="4.71" transform="translate(10.63 93.35) rotate(-76.17)"/><path class="cls-3" d="M36.07,37.11a.91.91,0,0,1-.6-.43L32,30.78a.91.91,0,1,1,1.57-.92L37,35.76a.91.91,0,0,1-1,1.35Z"/><path class="cls-3" d="M52.37,42.1a.91.91,0,0,1,.12-1.79l11.07-1.24a.91.91,0,0,1,.2,1.81L52.69,42.12A.87.87,0,0,1,52.37,42.1Z"/><path class="cls-3" d="M34.52,63.4l-.09,0a.91.91,0,0,1-.56-1.16L37.59,51.7a.91.91,0,1,1,1.72.61L35.6,62.81A.91.91,0,0,1,34.52,63.4Z"/></g></g></g></svg>