<svg xmlns="http://www.w3.org/2000/svg" viewBox="0 0 324.29 64.89"><defs><style>.cls-1,.cls-2{fill:#fff;}.cls-1{fill-rule:evenodd;}.cls-3{fill:#fdfdfe;}</style></defs><title>logos</title><g id="Layer_2" data-name="Layer 2"><g id="Fitnessveranstaltung_gelb" data-name="Fitnessveranstaltung gelb"><g id="Text_unten" data-name="Text unten"><path class="cls-1" d="M283.59,0h38.17a2.54,2.54,0,0,1,2.53,2.54V62.32a2.54,2.54,0,0,1-2.53,2.54H283.59a2.54,2.54,0,0,1-2.53-2.54V2.55A2.54,2.54,0,0,1,283.59,0Zm.34,1.91a1,1,0,0,0-1,1v59a1,1,0,0,0,1,1h37.48a1,1,0,0,0,1-1v-59a1,1,0,0,0-1-1Zm1.84,2.45c-.46,0-.79.55-.79,1.06V36.89a.55.55,0,0,0,.54.55h.83a.55.55,0,0,0,.54-.55V24.24a.65.65,0,0,1,.51-.74H289q.5.08.51.72V36.38a.55.55,0,0,0,.54.55h.83a.51.51,0,0,0,.49-.55l0-31a1,1,0,0,0-.86-1.06h-4.83ZM289,6h-1.65c-.36,0-.52.45-.51.85v5.63a.63.63,0,0,0,.51.72h1.72c.35-.07.46-.32.44-.72V6.87c0-.42,0-.82-.51-.85Zm0,8.74h-1.65a.62.62,0,0,0-.51.73v5.57q-.06.86.51.85H289a.77.77,0,0,0,.51-.85V15.49q0-.64-.51-.73Zm5.5-10.39c-.46,0-.79.55-.79,1.06v31a.55.55,0,0,0,.54.55h.83a.55.55,0,0,0,.54-.55V24.24a.65.65,0,0,1,.51-.74h1.65q.5.08.51.72V36.38a.55.55,0,0,0,.54.55h.83a.51.51,0,0,0,.5-.55l0-31a1,1,0,0,0-.86-1.06h-4.83ZM297.83,6h-1.65c-.36,0-.52.45-.51.85v5.63a.63.63,0,0,0,.51.72h1.72c.35-.07.46-.32.44-.72V6.87c0-.42,0-.82-.51-.85Zm0,8.74h-1.65a.62.62,0,0,0-.51.73v5.57q-.06.86.51.85h1.65a.77.77,0,0,0,.51-.85V15.49q0-.64-.51-.73ZM306.89,18c0,.57.33,1.1,1.4,1.12h11.88a.62.62,0,0,0,.68-.53v-.85a.62.62,0,0,0-.68-.53H309.44q-.68.06-.69-.51v-1.4c.05-.36.32-.49.69-.51h9.71c.94,0,1.63-.39,1.67-1.44V6.06A1.81,1.81,0,0,0,318.7,4.3H306.83a.62.62,0,0,0-.68.53v.85a.62.62,0,0,0,.68.53h10.62a1.45,1.45,0,0,1,1.47,1.53v3.63c0,.94-.17,1.59-1.41,1.53h-9.21a1.25,1.25,0,0,0-1.4,1.12v4ZM303.4,4.37a.55.55,0,0,0-.54.55V27.08c0,.56.34.83.77,1.12-.48.12-.79.45-.77,1.24v6.18c0,1.5,1.15,1.87,2.29,1.84H316a.63.63,0,0,0,.68-.53v-.85a.62.62,0,0,0-.68-.53H305.53q-.74.05-.76-.62V33.71q.09-.55.76-.52h10a.63.63,0,0,0,.68-.53v-.85a.63.63,0,0,0-.68-.53h-10a.85.85,0,0,1-.76-.78V28.45h12.45q1.37-.05,1.35,1.78v6.48a.79.79,0,0,0,.16.48.48.48,0,0,0,.37.2h.85a.48.48,0,0,0,.37-.2.79.79,0,0,0,.16-.48V29.32c0-1.87-1-2.81-2.7-2.78H305.53q-.76,0-.76-.57V24.38q0-.56.76-.51H319.8a.62.62,0,0,0,.68-.53V22.5a.62.62,0,0,0-.68-.53H305.53c-.49-.1-.81-.35-.76-.92V11.48a.63.63,0,0,1,.52-.76h11.63a.62.62,0,0,0,.68-.53V9.34a.62.62,0,0,0-.68-.53H305.3c-.42,0-.55-.14-.54-.76V4.92a.55.55,0,0,0-.54-.55Zm-2.34,44.38H286.14c-1.35,0-1.75,1.17-1.72,2.2v9a.79.79,0,0,0,.16.48.48.48,0,0,0,.37.2h.85a.48.48,0,0,0,.37-.2.8.8,0,0,0,.16-.48V51.89c0-.89.38-1.25,1-1.24h30.39c.46,0,.78.11.76.51v2q0,.62-.76.57H290a1,1,0,0,0-.94,1.07v4.81a.89.89,0,0,0,.89.91h29.67c.46,0,.83-.76.83-1.16h0a.79.79,0,0,0-.83-.73H291.43c-.4,0-.53-.12-.51-.62V56.23c-.07-.47.16-.59.51-.57h26.92c1.51,0,2-.68,2.05-1.56V50.43a1.49,1.49,0,0,0-1.59-1.68H303.47c-.2,0-.27-.12-.25-.33V46.63a.24.24,0,0,1,.25-.25h16.11a.79.79,0,0,0,.83-.73v-.44a.79.79,0,0,0-.83-.73H285.63a.79.79,0,0,0-.83.73v.44a.79.79,0,0,0,.83.73h15.42a.24.24,0,0,1,.25.25v1.78c0,.16-.07.32-.25.33Zm-15.42-8.44a.79.79,0,0,0-.83.73v.44a.79.79,0,0,0,.83.73h33.94a.79.79,0,0,0,.83-.73V41a.79.79,0,0,0-.83-.73Z"/><path class="cls-2" d="M4.36,60.05A1.42,1.42,0,0,0,4,59.7a1.45,1.45,0,0,0-.42-.24,1.46,1.46,0,0,0-.49-.08,1.64,1.64,0,0,0-.8.18,1.51,1.51,0,0,0-.53.49,2.15,2.15,0,0,0-.3.7,3.48,3.48,0,0,0-.09.81,3.23,3.23,0,0,0,.09.78,2.1,2.1,0,0,0,.3.68,1.53,1.53,0,0,0,.53.49,1.64,1.64,0,0,0,.8.18,1.29,1.29,0,0,0,1-.39,1.81,1.81,0,0,0,.44-1H5.92a3.23,3.23,0,0,1-.28,1.08,2.58,2.58,0,0,1-.59.82,2.5,2.5,0,0,1-.86.52,3.13,3.13,0,0,1-1.08.18,3.26,3.26,0,0,1-1.31-.25,2.82,2.82,0,0,1-1-.7,3.1,3.1,0,0,1-.61-1A3.84,3.84,0,0,1,0,61.56a4,4,0,0,1,.21-1.32,3.18,3.18,0,0,1,.61-1.06,2.82,2.82,0,0,1,1-.71,3.21,3.21,0,0,1,1.31-.26,3.21,3.21,0,0,1,1,.15A2.69,2.69,0,0,1,5,58.8a2.39,2.39,0,0,1,.61.72,2.57,2.57,0,0,1,.3,1H4.52A1.15,1.15,0,0,0,4.36,60.05Z"/><path class="cls-2" d="M13.49,63.15a1,1,0,0,0,.31.36,1.32,1.32,0,0,0,.45.2,2.12,2.12,0,0,0,.53.07l.4,0a1.39,1.39,0,0,0,.4-.12.87.87,0,0,0,.31-.25A.61.61,0,0,0,16,63a.56.56,0,0,0-.16-.42,1.3,1.3,0,0,0-.43-.27,4.35,4.35,0,0,0-.61-.19l-.69-.18a6,6,0,0,1-.69-.22,2.37,2.37,0,0,1-.61-.33,1.5,1.5,0,0,1-.6-1.26,1.66,1.66,0,0,1,.21-.85,1.89,1.89,0,0,1,.55-.6,2.39,2.39,0,0,1,.77-.36,3.25,3.25,0,0,1,.86-.12,4.05,4.05,0,0,1,1,.11,2.4,2.4,0,0,1,.81.36,1.83,1.83,0,0,1,.57.64,2,2,0,0,1,.21.94H15.8a1.13,1.13,0,0,0-.12-.47.79.79,0,0,0-.27-.29,1.15,1.15,0,0,0-.39-.15,2.41,2.41,0,0,0-.48,0,1.63,1.63,0,0,0-.34,0,.91.91,0,0,0-.31.12.77.77,0,0,0-.23.22.6.6,0,0,0-.09.34.57.57,0,0,0,.07.3.64.64,0,0,0,.28.21,3.62,3.62,0,0,0,.58.2l1,.25.49.13a2.36,2.36,0,0,1,.63.3,1.89,1.89,0,0,1,.54.55,1.56,1.56,0,0,1,.23.88,1.94,1.94,0,0,1-.17.81,1.76,1.76,0,0,1-.5.65,2.41,2.41,0,0,1-.83.42,3.91,3.91,0,0,1-1.14.15,4,4,0,0,1-1-.13,2.56,2.56,0,0,1-.87-.41,2,2,0,0,1-.6-.7,2.1,2.1,0,0,1-.21-1h1.35A1.16,1.16,0,0,0,13.49,63.15Z"/><path class="cls-2" d="M27.82,60.05a1.42,1.42,0,0,0-.31-.35,1.46,1.46,0,0,0-.92-.32,1.64,1.64,0,0,0-.8.18,1.51,1.51,0,0,0-.53.49,2.14,2.14,0,0,0-.3.7,3.48,3.48,0,0,0-.09.81,3.23,3.23,0,0,0,.09.78,2.09,2.09,0,0,0,.3.68,1.53,1.53,0,0,0,.53.49,1.64,1.64,0,0,0,.8.18,1.3,1.3,0,0,0,1-.39,1.81,1.81,0,0,0,.44-1h1.35a3.24,3.24,0,0,1-.28,1.08,2.59,2.59,0,0,1-.59.82,2.5,2.5,0,0,1-.86.52,3.13,3.13,0,0,1-1.08.18,3.26,3.26,0,0,1-1.31-.25,2.82,2.82,0,0,1-1-.7,3.1,3.1,0,0,1-.61-1,3.84,3.84,0,0,1-.21-1.3,4,4,0,0,1,.21-1.32,3.18,3.18,0,0,1,.61-1.06,2.82,2.82,0,0,1,1-.71,3.41,3.41,0,0,1,2.31-.11,2.69,2.69,0,0,1,.84.44,2.4,2.4,0,0,1,.61.72,2.57,2.57,0,0,1,.3,1H28A1.15,1.15,0,0,0,27.82,60.05Z"/><path class="cls-2" d="M37.28,58.36v6.36h-1.4V58.36Z"/><path class="cls-2" d="M6.62,49.82v4.23h-1v-.42H3.79v2.64h-1V53.63H1v.47H0V49.82H2.78V48.36h1v1.47ZM2.78,52.64V50.81H1v1.82Zm2.83,0V50.81H3.79v1.82Z"/><path class="cls-2" d="M12.33,53.45a4.69,4.69,0,0,0,.39.89,16.7,16.7,0,0,0-1.88,1.79,3.1,3.1,0,0,0-.57-.65,1.61,1.61,0,0,0,.49-1.11V51.92H9.81V51h1.88V54Zm-.91-3a11.41,11.41,0,0,0-1.26-1.36l.61-.62a11.19,11.19,0,0,1,1.31,1.28ZM17.26,55V56H12.34V55h.6V51.19h1V55h.76V49.83h-2.1v-.94H17.1v.94H15.64v1.9h1.31v.94H15.64V55Z"/><path class="cls-2" d="M22.55,48.66a14,14,0,0,1-.6,1.5v6.15h-.87V51.75c-.19.29-.39.57-.59.81a6.71,6.71,0,0,0-.49-1,9.24,9.24,0,0,0,1.69-3.17Zm5,1v.82H22.33v-.82h2.3a7.77,7.77,0,0,0-.5-1l.81-.32a6.72,6.72,0,0,1,.59,1.12l-.46.21Zm-4.73,3.76H27v2.81h-.85V56h-2.6v.26h-.81Zm4.15-1.7h-4v-.79h4Zm-4,.44h4V53h-4Zm.69,2.07v1h2.6v-1Z"/><path class="cls-2" d="M37.24,55.08c0,.54-.11.81-.43,1a3.56,3.56,0,0,1-1.55.18,3.93,3.93,0,0,0-.31-1c.45,0,1,0,1.13,0s.21-.05.21-.2V53.8H34.6v2.36h-1V53.8H32a5,5,0,0,1-1,2.52,3.6,3.6,0,0,0-.76-.65,5.65,5.65,0,0,0,1-3.71v-3h6.08Zm-3.61-2.23v-1H32.12V52c0,.27,0,.58,0,.89Zm-1.51-3v1h1.51v-1Zm4.18,0H34.6v1h1.7Zm0,3v-1H34.6v1Z"/><path class="cls-2" d="M0,6.62H17.38V0H0ZM0,19.71H17.38V13.11H0Zm10.77,11H6.61V24.24H0V37.29H17.38V24.24H10.77ZM26.42,13.11H19.82V37.29H37.28V30.69H26.42ZM19.82,0V6.62H30.67v6.49h6.61V0ZM30.67,26.15h6.61V19.54H30.67Z"/><path class="cls-2" d="M116.29,53.56a4.59,4.59,0,0,0,.41.89,17.15,17.15,0,0,0-2,1.79,3.18,3.18,0,0,0-.6-.66,1.58,1.58,0,0,0,.52-1.11V52h-1v-1h2v3.07Zm-1-3A11.67,11.67,0,0,0,114,49.2l.65-.62A11.53,11.53,0,0,1,116,49.86Zm6.17,4.58v.94h-5.2v-.94h.63V51.29h1v3.84h.81v-5.2h-2.22V49h4.8v.94h-1.55v1.9h1.39v.94h-1.39v2.36Z"/><path class="cls-2" d="M138,53.45c-.3,1.48-1,2.38-4,2.8a3.16,3.16,0,0,0-.45-.85c2.7-.29,3.23-.9,3.49-1.95Zm-1.73-2.25c-.8.3-1.66.6-2.36.84l-.31-.93c.64-.17,1.58-.48,2.49-.78Zm-.71-1.07a8.42,8.42,0,0,0-1.71-.94l.5-.68a8,8,0,0,1,1.73.86Zm3.83,4.42V53.23h-3.77v1.41h-1V52.31h5.82v2.24Zm-.21-4.79-.08.25a3.41,3.41,0,0,0,2.26,1.42,2.86,2.86,0,0,0-.59.79,3.89,3.89,0,0,1-2-1.4,3.69,3.69,0,0,1-2.16,1.49,2.55,2.55,0,0,0-.52-.73,2.62,2.62,0,0,0,2.12-1.81h-.66a4.29,4.29,0,0,1-.89,1,2.56,2.56,0,0,0-.7-.63,3.58,3.58,0,0,0,1.25-1.78l1,.14c-.06.17-.14.35-.2.52h2.42l.17,0,.74.18a13.32,13.32,0,0,1-.6,1.45l-.88-.23c.07-.17.15-.38.23-.61Zm-1.06,4.59a24.37,24.37,0,0,1,3.15,1l-.63.8a25.44,25.44,0,0,0-3.1-1.13Z"/><path class="cls-2" d="M147.88,51a7.47,7.47,0,0,0,3,3.1,4.05,4.05,0,0,0-.78.91,7.28,7.28,0,0,1-1.39-1.12v.94h-1.44v1.42h-1.06V54.83h-1.45v-.9a7.38,7.38,0,0,1-1.34,1.1,5,5,0,0,0-.73-.84A7.47,7.47,0,0,0,145.62,51H143V50h3.19V48.33h1.06V50h3.22v1Zm-1.67,2.81V52a9.81,9.81,0,0,1-1.33,1.85Zm2.42,0a9.42,9.42,0,0,1-1.36-1.87V53.8Z"/><path class="cls-2" d="M126.68,48.85a13.35,13.35,0,0,1-.58,1.45v5.95h-.85V51.84c-.19.28-.39.55-.57.78a6.41,6.41,0,0,0-.48-1,8.92,8.92,0,0,0,1.65-3.07Zm4.84,1v.8h-5.06v-.8h2.25a7.51,7.51,0,0,0-.49-1l.79-.31a6.44,6.44,0,0,1,.57,1.08l-.45.2Zm-4.62,3.64h4.16v2.72h-.83V56h-2.54v.25h-.79ZM131,51.82H127v-.76H131Zm-3.94.43H131V53H127Zm.68,2,0,.93h2.54v-.93h-2.54Z"/><path class="cls-2" d="M113.61,6.63H131V0H113.61Zm0,13.09H131V13.11H113.61Zm10.77,11h-4.16V24.25h-6.61V37.3H131V24.25h-6.61ZM140,13.11h-6.61V37.3h17.46V30.7H140ZM133.43,0V6.63h10.86v6.49h6.61V0Zm10.86,26.14h6.61V19.55h-6.61Z"/><path class="cls-2" d="M117.53,60.52a1.14,1.14,0,0,0-1.23-1.2q-1.13.07-1.2,2.33t1.2,2.3a1.12,1.12,0,0,0,1.23-1.2H119q-.1,2.09-2.68,2.13t-2.64-3.22q.1-3.22,2.64-3.33T119,60.52Z"/><path class="cls-2" d="M124.18,60.28a.9.9,0,0,0-1-1q-1,.07-1,.82t1.17.89l.17,0q2.23.45,2.19,1.75,0,2-2.71,2.06-2.47,0-2.43-2.09h1.37a1,1,0,0,0,1.06,1.17q1.23,0,1.27-.82t-1.2-.89l-.24-.07q-2.09-.48-2.09-1.75.1-2,2.64-2.09,2.06.1,2.16,2Z"/><path class="cls-2" d="M131.05,60.52a1.14,1.14,0,0,0-1.23-1.2q-1.13.07-1.2,2.33t1.2,2.3a1.12,1.12,0,0,0,1.23-1.2h1.44q-.1,2.09-2.68,2.13t-2.64-3.22q.1-3.22,2.64-3.33t2.68,2.19Z"/><path class="cls-2" d="M135.45,64.8h-1.37V58.46h1.37Z"/><path class="cls-2" d="M141,60.52a1.14,1.14,0,0,0-1.23-1.2q-1.13.07-1.2,2.33t1.2,2.3a1.12,1.12,0,0,0,1.23-1.2h1.44q-.1,2.09-2.68,2.13t-2.64-3.22q.1-3.22,2.64-3.33t2.68,2.19Z"/><path class="cls-2" d="M147.84,64.8h-1.13L145,59.35l0,0V64.8h-1.27V58.46H146l1.34,4.63h0l1.44-4.63h2.13V64.8h-1.27V59.35Z"/><path class="cls-2" d="M207.7,49.71h-1.4a3.49,3.49,0,0,1,.32.52l-.9.3a4.88,4.88,0,0,0-.5-.82h-.51a5.79,5.79,0,0,1-.46.53v.43h3.22v1.69h-1v-.94h-5.35v.94h-.94V50.67h3.1v-.58h.24l-.33-.18.25-.2h-1a4,4,0,0,1,.27.53l-.89.28a4.57,4.57,0,0,0-.39-.81h-.14a5.43,5.43,0,0,1-.7.83,5.35,5.35,0,0,0-.79-.56,4.62,4.62,0,0,0,1.24-1.71l.93.24c-.06.14-.13.27-.19.41h1.91v.55a3.87,3.87,0,0,0,.77-1.2l.95.23a3.89,3.89,0,0,1-.2.42h2.48ZM202.45,54h4.37v2.18h-1V56h-3.38v.22h-1V51.77h4.65v1.9h-3.7Zm0-1.53V53h2.69V52.5Zm0,2.26v.49h3.38v-.49Z"/><path class="cls-2" d="M174.22,60.58A1.12,1.12,0,0,0,173,59.4q-1.11.07-1.18,2.29T173,63.94a1.1,1.1,0,0,0,1.21-1.18h1.41q-.1,2.05-2.63,2.09t-2.59-3.16q.1-3.17,2.59-3.27t2.63,2.15Z"/><path class="cls-2" d="M180.9,60.34a.88.88,0,0,0-1-.94q-1,.07-1,.81t1.14.88l.17,0q2.19.44,2.16,1.72,0,2-2.66,2-2.42,0-2.39-2.05h1.35a1,1,0,0,0,1,1.14q1.21,0,1.25-.81t-1.18-.88l-.24-.07q-2.05-.47-2.05-1.72.1-1.92,2.59-2.05,2,.1,2.12,1.92Z"/><path class="cls-2" d="M187.62,60.58a1.12,1.12,0,0,0-1.21-1.18q-1.11.07-1.18,2.29t1.18,2.26a1.1,1.1,0,0,0,1.21-1.18H189q-.1,2.05-2.63,2.09t-2.59-3.16q.1-3.17,2.59-3.27T189,60.58Z"/><path class="cls-2" d="M192.39,64.89H191V58.67h1.35Z"/><path class="cls-2" d="M193.81,64.85l2.26-6.23h1.58l2.19,6.23h-1.35L198,63.54h-2.46l-.47,1.31Zm3.87-2.36-.84-2.66h0l-.91,2.66Z"/><path class="cls-2" d="M204.7,64.79h-1.11l-1.65-5.35,0,0v5.32h-1.25V58.56h2.19l1.31,4.55h0l1.41-4.55h2.09v6.23h-1.25V59.43Z"/><path class="cls-2" d="M173,53.45a4.53,4.53,0,0,0,.4.88,16.93,16.93,0,0,0-2,1.77,3.14,3.14,0,0,0-.6-.65,1.57,1.57,0,0,0,.51-1.1V51.94h-1V51h2v3Zm-.95-3a11.56,11.56,0,0,0-1.32-1.35l.64-.61a11.42,11.42,0,0,1,1.37,1.27ZM178.2,55v.93h-5.14V55h.62v-3.8h1V55h.8V49.86h-2.19v-.93H178v.93H176.5v1.88h1.37v.93H176.5V55Z"/><path class="cls-2" d="M194.49,53.5c-.29,1.46-1,2.35-4,2.77a3.12,3.12,0,0,0-.45-.84c2.66-.29,3.19-.89,3.45-1.93Zm-1.71-2.23c-.79.29-1.64.6-2.33.83l-.3-.92c.63-.17,1.56-.47,2.46-.77Zm-.7-1.06a8.3,8.3,0,0,0-1.69-.92l.5-.67a8,8,0,0,1,1.71.85Zm3.78,4.37v-1.3h-3.72v1.4h-1v-2.3h5.75v2.21Zm-.21-4.73-.08.24a3.37,3.37,0,0,0,2.24,1.4,2.83,2.83,0,0,0-.58.78,3.85,3.85,0,0,1-2-1.39,3.65,3.65,0,0,1-2.13,1.47,2.53,2.53,0,0,0-.51-.72,2.59,2.59,0,0,0,2.09-1.79H194a4.24,4.24,0,0,1-.88,1,2.54,2.54,0,0,0-.69-.62,3.54,3.54,0,0,0,1.24-1.76l.94.14c-.06.17-.13.34-.2.51h2.39l.17,0,.73.18a13.22,13.22,0,0,1-.59,1.43l-.87-.23c.07-.17.15-.38.23-.61Zm-1.05,4.54a24,24,0,0,1,3.11,1l-.62.79A25.11,25.11,0,0,0,194,55.1Z"/><path class="cls-2" d="M183,48.83a13.17,13.17,0,0,1-.58,1.44v5.88h-.84V51.78c-.19.28-.38.54-.57.77a6.35,6.35,0,0,0-.47-.95,8.8,8.8,0,0,0,1.63-3Zm4.78,1v.79h-5V49.8H185a7.45,7.45,0,0,0-.48-1l.79-.31a6.36,6.36,0,0,1,.57,1.07l-.44.2Zm-4.57,3.6h4.11v2.68h-.82v-.23H184v.25h-.78Zm4-1.63h-3.89V51h3.89Zm-3.89.42h3.89v.75h-3.89Zm.67,2,0,.92h2.51v-.92H184Z"/><path class="cls-2" d="M170.42,6.61H187.8V0H170.42Zm0,13.09H187.8V13.09H170.42Zm10.77,11H177V24.23h-6.61V37.28H187.8V24.23h-6.61Zm15.65-17.58h-6.61V37.28H207.7V30.67H196.84ZM190.24,0V6.61h10.86v6.49h6.61V0Zm10.86,26.14h6.61V19.53h-6.61Z"/><path class="cls-2" d="M61.16,60.06a1.42,1.42,0,0,0-.31-.35,1.46,1.46,0,0,0-.92-.32,1.64,1.64,0,0,0-.8.18,1.51,1.51,0,0,0-.53.49,2.15,2.15,0,0,0-.3.7,3.48,3.48,0,0,0-.09.81,3.23,3.23,0,0,0,.09.78,2.1,2.1,0,0,0,.3.68,1.53,1.53,0,0,0,.53.49,1.64,1.64,0,0,0,.8.18,1.29,1.29,0,0,0,1-.39,1.81,1.81,0,0,0,.44-1h1.35a3.22,3.22,0,0,1-.28,1.08,2.59,2.59,0,0,1-.59.82,2.5,2.5,0,0,1-.86.52,3.13,3.13,0,0,1-1.08.18,3.26,3.26,0,0,1-1.31-.25,2.82,2.82,0,0,1-1-.7,3.1,3.1,0,0,1-.61-1,3.84,3.84,0,0,1-.21-1.3A4,4,0,0,1,57,60.25a3.18,3.18,0,0,1,.61-1.06,2.82,2.82,0,0,1,1-.71,3.41,3.41,0,0,1,2.31-.11,2.7,2.7,0,0,1,.84.44,2.39,2.39,0,0,1,.61.72,2.57,2.57,0,0,1,.3,1H61.32a1.15,1.15,0,0,0-.16-.44"/><path class="cls-2" d="M69.11,63.15a1,1,0,0,0,.31.36,1.32,1.32,0,0,0,.45.2,2.12,2.12,0,0,0,.53.07l.4,0a1.39,1.39,0,0,0,.4-.12.87.87,0,0,0,.31-.25.61.61,0,0,0,.12-.4.56.56,0,0,0-.16-.42,1.3,1.3,0,0,0-.43-.27,4.35,4.35,0,0,0-.61-.19l-.69-.18a6,6,0,0,1-.69-.22,2.37,2.37,0,0,1-.61-.33,1.5,1.5,0,0,1-.6-1.26,1.66,1.66,0,0,1,.21-.85,1.89,1.89,0,0,1,.55-.6,2.39,2.39,0,0,1,.77-.36,3.25,3.25,0,0,1,.86-.12,4.05,4.05,0,0,1,1,.11,2.4,2.4,0,0,1,.81.36,1.83,1.83,0,0,1,.57.64,2,2,0,0,1,.21.94H71.42a1.13,1.13,0,0,0-.12-.47.79.79,0,0,0-.27-.29,1.15,1.15,0,0,0-.39-.15,2.41,2.41,0,0,0-.48,0,1.64,1.64,0,0,0-.34,0,.91.91,0,0,0-.31.12.77.77,0,0,0-.23.22.6.6,0,0,0-.09.34.57.57,0,0,0,.07.3.64.64,0,0,0,.28.21,3.59,3.59,0,0,0,.58.2l1,.25.49.13a2.36,2.36,0,0,1,.63.3,1.88,1.88,0,0,1,.54.55,1.56,1.56,0,0,1,.23.88,1.94,1.94,0,0,1-.17.81,1.76,1.76,0,0,1-.5.65,2.41,2.41,0,0,1-.83.42,3.91,3.91,0,0,1-1.14.15,4,4,0,0,1-1-.13,2.55,2.55,0,0,1-.87-.41,2,2,0,0,1-.6-.7,2.11,2.11,0,0,1-.21-1H69a1.16,1.16,0,0,0,.12.54"/><path class="cls-2" d="M90.2,63.15a1,1,0,0,0,.31.36,1.32,1.32,0,0,0,.45.2,2.12,2.12,0,0,0,.53.07l.4,0a1.39,1.39,0,0,0,.4-.12.87.87,0,0,0,.31-.25.61.61,0,0,0,.12-.4.56.56,0,0,0-.16-.42,1.3,1.3,0,0,0-.43-.27,4.34,4.34,0,0,0-.61-.19l-.69-.18a6,6,0,0,1-.69-.22,2.37,2.37,0,0,1-.61-.33,1.5,1.5,0,0,1-.6-1.26,1.67,1.67,0,0,1,.21-.85,1.9,1.9,0,0,1,.55-.6,2.39,2.39,0,0,1,.77-.36,3.25,3.25,0,0,1,.86-.12,4.06,4.06,0,0,1,1,.11,2.4,2.4,0,0,1,.81.36,1.83,1.83,0,0,1,.57.64,2,2,0,0,1,.21.94H92.52a1.13,1.13,0,0,0-.12-.47.79.79,0,0,0-.27-.29,1.15,1.15,0,0,0-.39-.15,2.4,2.4,0,0,0-.48,0,1.63,1.63,0,0,0-.34,0,.91.91,0,0,0-.31.12.77.77,0,0,0-.23.22.6.6,0,0,0-.09.34.57.57,0,0,0,.07.3.64.64,0,0,0,.28.21,3.6,3.6,0,0,0,.58.2l1,.25.49.13a2.36,2.36,0,0,1,.63.3,1.88,1.88,0,0,1,.54.55,1.56,1.56,0,0,1,.23.88,1.94,1.94,0,0,1-.17.81,1.76,1.76,0,0,1-.5.65,2.41,2.41,0,0,1-.83.42,3.91,3.91,0,0,1-1.14.15,4,4,0,0,1-1-.13,2.55,2.55,0,0,1-.87-.41,2,2,0,0,1-.6-.7,2.11,2.11,0,0,1-.21-1h1.35a1.16,1.16,0,0,0,.12.54"/><path class="cls-2" d="M82.26,60.06a1.42,1.42,0,0,0-.31-.35,1.46,1.46,0,0,0-.92-.32,1.64,1.64,0,0,0-.8.18,1.51,1.51,0,0,0-.53.49,2.14,2.14,0,0,0-.3.7,3.48,3.48,0,0,0-.09.81,3.23,3.23,0,0,0,.09.78,2.09,2.09,0,0,0,.3.68,1.53,1.53,0,0,0,.53.49,1.64,1.64,0,0,0,.8.18,1.3,1.3,0,0,0,1-.39,1.81,1.81,0,0,0,.44-1h1.35a3.24,3.24,0,0,1-.28,1.08,2.59,2.59,0,0,1-.59.82,2.5,2.5,0,0,1-.86.52,3.13,3.13,0,0,1-1.08.18,3.26,3.26,0,0,1-1.31-.25,2.82,2.82,0,0,1-1-.7,3.1,3.1,0,0,1-.61-1,3.84,3.84,0,0,1-.21-1.3,4,4,0,0,1,.21-1.32,3.18,3.18,0,0,1,.61-1.06,2.82,2.82,0,0,1,1-.71A3.41,3.41,0,0,1,82,58.36a2.69,2.69,0,0,1,.84.44,2.4,2.4,0,0,1,.61.72,2.57,2.57,0,0,1,.3,1H82.42a1.15,1.15,0,0,0-.16-.44"/><path class="cls-2" d="M63.43,49.83v4.23h-1v-.42H60.6v2.64h-1V53.63H57.77v.47h-1V49.83h2.78V48.36h1v1.47Zm-3.84,2.81,0-1.82H57.77v1.82h1.81Zm2.83,1.82,0-1.82H60.6v1.82h1.82Z"/><path class="cls-2" d="M69.13,53.45a4.68,4.68,0,0,0,.39.89,16.72,16.72,0,0,0-1.88,1.79,3.09,3.09,0,0,0-.57-.65,1.61,1.61,0,0,0,.49-1.11V51.93h-.94V51H68.5V54Zm-.91-3A11.39,11.39,0,0,0,67,49.11l.61-.62a11.19,11.19,0,0,1,1.31,1.28ZM74.07,55V56H69.15V55h.6V51.19h1V55h.76V49.83h-2.1v-.94h4.55v.94H72.44v1.9h1.31v.94H72.44V55Z"/><path class="cls-2" d="M56.81,6.62H74.18V0H56.81Zm0,13.09H74.18V13.11H56.81Zm10.77,11H63.41V24.24h-6.6V37.3H74.18V24.24H67.58ZM83.23,13.11H76.63V37.3H94.09V30.69H83.23ZM76.63,0V6.62H87.48v6.49h6.61V0ZM87.48,26.15h6.61V19.55H87.48Z"/><path class="cls-2" d="M79.13,50.58a8.82,8.82,0,0,1-.66,1v4.51h-1V52.77a6.47,6.47,0,0,1-.61.57,7.28,7.28,0,0,0-.47-1,7.3,7.3,0,0,0,1.89-2.11ZM79,48.79a8.49,8.49,0,0,1-2,2.08,6.57,6.57,0,0,0-.5-.83,5.72,5.72,0,0,0,1.57-1.6ZM84.13,55v.92H78.9V55h.71V51.29h.94V55h.76V49.88H79.39V49h4.5v.91H82.28v2h1.47v.9H82.28V55Z"/><path class="cls-2" d="M89.11,48.65a14.09,14.09,0,0,1-.6,1.51v6.18h-.87V51.75c-.2.29-.4.57-.59.81a6.69,6.69,0,0,0-.49-1,9.29,9.29,0,0,0,1.7-3.19Zm5,1v.83h-5.2v-.83H91.2a7.76,7.76,0,0,0-.5-1l.82-.32a6.7,6.7,0,0,1,.59,1.12l-.46.21Zm-4.76,3.78h4.28v2.82h-.85V56H90.15v.26h-.82Zm4.18-1.71H89.45v-.79H93.5Zm-4.05.44H93.5V53H89.45Zm.7,2.08,0,1h2.61v-1H90.15Z"/><path class="cls-3" d="M233.55,49.73v4h-1v-.4h-1.74V55.8h-1V53.31h-1.73v.44h-.92v-4h2.66V48.35h1v1.38Zm-3.67,2.65V50.66h-1.73v1.72Zm2.71,0V50.66h-1.74v1.72Z"/><path class="cls-3" d="M236.92,53.14a4.43,4.43,0,0,0,.37.84,15.82,15.82,0,0,0-1.79,1.68A2.94,2.94,0,0,0,235,55a1.51,1.51,0,0,0,.47-1V51.7h-.9V50.8h1.79v2.88Zm-.87-2.82A10.76,10.76,0,0,0,234.85,49l.59-.58a10.58,10.58,0,0,1,1.25,1.2Zm5.59,4.29v.89h-4.7v-.89h.57V51h.91v3.61h.73V49.73h-2v-.89h4.35v.89h-1.4v1.79h1.25v.89h-1.25v2.21Z"/><path class="cls-3" d="M244.5,48.63a12.9,12.9,0,0,1-.57,1.41v5.78h-.83V51.54c-.18.27-.38.53-.56.76a6.25,6.25,0,0,0-.47-.93,8.65,8.65,0,0,0,1.62-3Zm4.73.95v.77h-4.95v-.77h2.2a7.28,7.28,0,0,0-.48-.95l.78-.3a6.19,6.19,0,0,1,.56,1.05l-.44.2Zm-4.53,3.54h4.07v2.64H248v-.22h-2.49v.25h-.78Zm4-1.6h-3.86v-.74h3.86Zm-3.86.41h3.86v.74h-3.86Zm.66,1.95v.9H248v-.9Z"/><path class="cls-3" d="M256.45,54.67c0,.51-.11.77-.42.91a3.46,3.46,0,0,1-1.48.17,3.69,3.69,0,0,0-.29-.91c.43,0,.94,0,1.08,0s.2,0,.2-.19v-1.2h-1.62v2.23H253V53.47h-1.57a4.66,4.66,0,0,1-1,2.37,3.4,3.4,0,0,0-.72-.61,5.26,5.26,0,0,0,.91-3.49V48.88h5.81ZM253,52.57v-1h-1.45v.14c0,.26,0,.54,0,.84Zm-1.45-2.79v.93H253v-.93Zm4,0h-1.62v.93h1.62Zm0,2.79v-1h-1.62v1Z"/><path class="cls-3" d="M261,52.08a15.85,15.85,0,0,1-1.51,2.22l3.07-.19L261.81,53l.84-.45a24.38,24.38,0,0,1,1.75,2.76l-.89.56c-.12-.24-.25-.53-.43-.84-3.87.31-4.42.34-4.83.5a11.08,11.08,0,0,0-.35-1.06c.22-.06.38-.24.63-.53a10.73,10.73,0,0,0,1.15-1.84h-2.09v-1h6.93v1Zm2.74-2.23h-5.26v-1h5.26Z"/><path class="cls-3" d="M231.58,60a1.42,1.42,0,0,0-.31-.35,1.46,1.46,0,0,0-.92-.32,1.64,1.64,0,0,0-.8.18A1.51,1.51,0,0,0,229,60a2.14,2.14,0,0,0-.3.7,3.48,3.48,0,0,0-.09.81,3.23,3.23,0,0,0,.09.78,2.1,2.1,0,0,0,.3.68,1.53,1.53,0,0,0,.53.49,1.64,1.64,0,0,0,.8.18,1.29,1.29,0,0,0,1-.39,1.81,1.81,0,0,0,.44-1h1.35a3.23,3.23,0,0,1-.28,1.08,2.58,2.58,0,0,1-.59.82,2.49,2.49,0,0,1-.85.52,3.14,3.14,0,0,1-1.08.18A3.26,3.26,0,0,1,229,64.6a2.82,2.82,0,0,1-1-.7,3.1,3.1,0,0,1-.61-1,3.84,3.84,0,0,1-.21-1.3,4,4,0,0,1,.21-1.32,3.18,3.18,0,0,1,.61-1.06,2.82,2.82,0,0,1,1-.71,3.41,3.41,0,0,1,2.31-.11,2.7,2.7,0,0,1,.84.44,2.39,2.39,0,0,1,.61.72,2.57,2.57,0,0,1,.3,1h-1.35A1.15,1.15,0,0,0,231.58,60Z"/><path class="cls-3" d="M240.1,63.14a1,1,0,0,0,.31.36,1.32,1.32,0,0,0,.45.2,2.12,2.12,0,0,0,.53.07l.4,0a1.39,1.39,0,0,0,.4-.12.87.87,0,0,0,.31-.25.61.61,0,0,0,.12-.4.56.56,0,0,0-.16-.42,1.3,1.3,0,0,0-.43-.27,4.35,4.35,0,0,0-.61-.19l-.69-.18a6,6,0,0,1-.69-.22,2.37,2.37,0,0,1-.61-.33,1.5,1.5,0,0,1-.6-1.26,1.66,1.66,0,0,1,.21-.85,1.89,1.89,0,0,1,.55-.6,2.39,2.39,0,0,1,.77-.36,3.25,3.25,0,0,1,.86-.12,4.05,4.05,0,0,1,1,.11,2.4,2.4,0,0,1,.81.36,1.83,1.83,0,0,1,.57.64,2,2,0,0,1,.21.94h-1.35a1.13,1.13,0,0,0-.12-.47.79.79,0,0,0-.27-.29,1.15,1.15,0,0,0-.39-.15,2.4,2.4,0,0,0-.48,0,1.63,1.63,0,0,0-.34,0,.91.91,0,0,0-.31.12.77.77,0,0,0-.23.22.6.6,0,0,0-.09.34.57.57,0,0,0,.07.3.64.64,0,0,0,.28.21,3.61,3.61,0,0,0,.58.2l1,.25.49.13a2.36,2.36,0,0,1,.63.3,1.89,1.89,0,0,1,.54.55,1.56,1.56,0,0,1,.23.88,1.94,1.94,0,0,1-.17.81,1.76,1.76,0,0,1-.5.65,2.41,2.41,0,0,1-.83.42,3.9,3.9,0,0,1-1.14.15,4,4,0,0,1-1-.13,2.56,2.56,0,0,1-.87-.41,2,2,0,0,1-.6-.7,2.1,2.1,0,0,1-.21-1H240A1.16,1.16,0,0,0,240.1,63.14Z"/><path class="cls-3" d="M253.28,60a1.42,1.42,0,0,0-.31-.35,1.46,1.46,0,0,0-.92-.32,1.64,1.64,0,0,0-.8.18,1.51,1.51,0,0,0-.53.49,2.14,2.14,0,0,0-.3.7,3.48,3.48,0,0,0-.09.81,3.23,3.23,0,0,0,.09.78,2.09,2.09,0,0,0,.3.68,1.53,1.53,0,0,0,.53.49,1.64,1.64,0,0,0,.8.18,1.3,1.3,0,0,0,1-.39,1.82,1.82,0,0,0,.44-1h1.35a3.23,3.23,0,0,1-.28,1.08,2.6,2.6,0,0,1-.59.82,2.51,2.51,0,0,1-.86.52,3.14,3.14,0,0,1-1.08.18,3.26,3.26,0,0,1-1.31-.25,2.82,2.82,0,0,1-1-.7,3.1,3.1,0,0,1-.61-1,3.84,3.84,0,0,1-.21-1.3,4,4,0,0,1,.21-1.32,3.18,3.18,0,0,1,.61-1.06,2.82,2.82,0,0,1,1-.71,3.41,3.41,0,0,1,2.31-.11,2.69,2.69,0,0,1,.84.44,2.39,2.39,0,0,1,.61.72,2.57,2.57,0,0,1,.3,1h-1.35A1.16,1.16,0,0,0,253.28,60Z"/><path class="cls-3" d="M261.3,64.7V59.42h-1.89V58.35h5v1.07h-1.88V64.7Z"/><path class="cls-2" d="M227.23,6.61H244.6V0H227.23Zm0,13.09H244.6V13.1H227.23Zm10.77,11h-4.16V24.23h-6.61V37.29H244.6V24.23H238ZM253.65,13.1H247V37.29h17.46V30.68H253.65ZM247,0V6.61H257.9V13.1h6.61V0ZM257.9,26.14h6.61V19.53H257.9Z"/></g></g></g></svg>