<svg xmlns="http://www.w3.org/2000/svg" viewBox="0 0 81.16 81.16"><defs><style>.cls-1{fill:#fff;}.cls-2{fill:none;stroke:#1b8dc4;stroke-miterlimit:10;}.cls-3{fill:#1b8dc4;}</style></defs><title>资源 8</title><g id="图层_2" data-name="图层 2"><g id="Fitnessveranstaltung_gelb" data-name="Fitnessveranstaltung gelb"><g id="Text_unten" data-name="Text unten"><circle class="cls-1" cx="40.58" cy="40.58" r="40.58"/><circle class="cls-2" cx="40.58" cy="40.58" r="37.85"/><rect class="cls-3" x="44.99" y="35.14" width="5.25" height="19.24"/><rect class="cls-3" x="52.87" y="26.39" width="5.25" height="27.99"/><rect class="cls-3" x="21.38" y="50.88" width="5.25" height="3.5"/><rect class="cls-3" x="18.75" y="56.13" width="41.99" height="2.63"/><rect class="cls-3" x="29.25" y="47.38" width="5.25" height="7"/><rect class="cls-3" x="37.12" y="42.13" width="5.25" height="12.25"/><circle class="cls-3" cx="37.93" cy="17.88" r="2.43" transform="translate(-4 17.92) rotate(-25.29)"/><path class="cls-3" d="M49.83,31,44,28.25A2,2,0,0,0,42.76,28l-4.11.33c-.05,0-.08-.07-.08-.15s.16-1.58.31-3L36.66,21a3.16,3.16,0,0,0-1.67.6l-7.65,5.65a.94.94,0,0,0,1,1.61l5.42-3.1-1.33,9.85-4.84-.2a1.23,1.23,0,0,0-.21,2.45l5.87.77a2.31,2.31,0,0,0,2.32-1.7l1.61-4.67,6-1,5.62,2a1.23,1.23,0,1,0,1-2.24Z"/><polygon class="cls-3" points="38.01 22.49 38.81 24.1 38.94 21.55 38.13 21.42 38.01 22.49"/></g></g></g></svg>