<svg xmlns="http://www.w3.org/2000/svg" xmlns:xlink="http://www.w3.org/1999/xlink" viewBox="0 0 1247.99 501.74"><defs><style>.cls-1{fill:url(#未命名的渐变_25);}.cls-2{fill:url(#未命名的渐变_25-2);}.cls-3{fill:url(#未命名的渐变_25-3);}.cls-4{fill:url(#未命名的渐变_25-4);}.cls-5{fill:url(#未命名的渐变_25-5);}.cls-6{fill:url(#未命名的渐变_25-6);}</style><linearGradient id="未命名的渐变_25" x1="46.2" y1="191.21" x2="208.14" y2="471.69" gradientUnits="userSpaceOnUse"><stop offset="0" stop-color="#153361"/><stop offset="1" stop-color="#214d79"/></linearGradient><linearGradient id="未命名的渐变_25-2" x1="271.36" y1="220" x2="383.15" y2="413.62" xlink:href="#未命名的渐变_25"/><linearGradient id="未命名的渐变_25-3" x1="407.77" y1="153.68" x2="545.77" y2="392.69" xlink:href="#未命名的渐变_25"/><linearGradient id="未命名的渐变_25-4" x1="587.36" y1="142.98" x2="722.5" y2="377.05" xlink:href="#未命名的渐变_25"/><linearGradient id="未命名的渐变_25-5" x1="898.75" y1="51.18" x2="1048.28" y2="310.17" xlink:href="#未命名的渐变_25"/><linearGradient id="未命名的渐变_25-6" x1="1086.58" y1="48.37" x2="1200.28" y2="245.3" xlink:href="#未命名的渐变_25"/></defs><title>资源 9</title><g id="图层_2" data-name="图层 2"><g id="Fitnessveranstaltung_gelb" data-name="Fitnessveranstaltung gelb"><g id="Text_unten" data-name="Text unten"><path class="cls-1" d="M2,217.09l-1,5.23-1-.13,1-4.9Zm270.46,78.52q-3.89,4.13-13,8.94A108.62,108.62,0,0,0,244,314.34q-2.13,1.1-6.66,3.66a13,13,0,0,0-.78,2.84,3.19,3.19,0,0,0,2.39.2q-6.33,3.6-17.45,8.48a2.15,2.15,0,0,1,.32,1.61q-.39,1.42,0,1.68l1.68-1.67q3.55-.7,10.85-4.49-1.75,3-4,3.48c-.65.13-.94.08-.87-.16s-.12-.31-.55-.23-1.08.77-1.94,2.06a4.54,4.54,0,0,0,2-.06q-4.46,1.22-11.63,5.66c-.17.26,0,.56.51.9a6.24,6.24,0,0,1,5.1-1.34q-13.64,5.72-33.53,13.68-2.52.84-1,1.55A4.37,4.37,0,0,0,185.9,354q-1.2,1.58-1.68,1.67a2.7,2.7,0,0,0-1.07.55,18.93,18.93,0,0,1,3.48,2.33,2.91,2.91,0,0,0-.91,1.35c-.22.6-.61,1.75-1.17,3.42-.65.13-1.3.82-1.94,2.06q.63,6.59-3.44,9.74l.06.32,1-.19q.64-.13,3.95-3.8a7.59,7.59,0,0,1,.39-3.1,3,3,0,0,0,.64,3.23q.32-1.74,1.3-5.29,3.36-1.67,4.38,3.5,1.72,8.72-5.11,36.91-1.38,6.65-4.56,19.35-7.87,24.7-13.35,25.79a7.18,7.18,0,0,1-2.13-.58q2.06.26-4.07,1.47a4.36,4.36,0,0,1-2.23-.23,4.36,4.36,0,0,0-2.23-.23,40,40,0,0,1-3.17,6q.77.52,8.13.4,4.77.39,5.67,4.92.25,1.29-1.49,3.48c-1.17,1.46-2.07,2.25-2.72,2.38q2.25-.45-11.1-.15-15.37.35-47.23-6.43a184.49,184.49,0,0,1-42.89-15A150.06,150.06,0,0,1,46.07,440a9.94,9.94,0,0,0-1.61-3,9.14,9.14,0,0,0-3-1.75q-9.61-4.47-28.69-14.45l-.64-3.23a24.61,24.61,0,0,0,4.71.08c1.29-.26,1.29-.81,0-1.68q3.74,2,12.25,6T42.42,425q.64-.13,2.46-2.83l-9.29-4.54L35.09,415a16.72,16.72,0,0,1,6.46-3q.64-.13,6.48,2.24t6.48,2.24a29.2,29.2,0,0,1,3-.25l2.91-.58q-4.39-1.81-8.64-3.83A17.39,17.39,0,0,1,45.24,407q1.88-.7,6.59-2.31L50.34,404q.32-.06-1.22-1.1a1.89,1.89,0,0,0-.39,1.42A6.92,6.92,0,0,0,45,404a7.27,7.27,0,0,0,3.1-1.29q-1.87-1-6.13-.46a1.91,1.91,0,0,0-.9-1.16,21.25,21.25,0,0,1-7.87-.79,3.19,3.19,0,0,1-1.49,1q1.68-1.67,7-2.05c.21,0,.24-.49.07-1.36a1.87,1.87,0,0,1-1.42-.39q1.54,1,6-.18l7.1-1.41q.32-.06,7.81.47a17,17,0,0,1,2.58,1.17,4.81,4.81,0,0,0,2.84.78l2.26-.45,2.26-.45q2.77,2.14,1.54,2.71,11.54,4.09,13.16,3.77c1.94-.38,2.86-.79,2.78-1.22q.64,3.23,3.67,3.3a2.69,2.69,0,0,0,.26-2.07,11.63,11.63,0,0,1,6.71,3.37l-.26.39a45.34,45.34,0,0,0,5.16,2.33q17.92,7.53,21.16,6.89c.65-.13.89-.29.74-.48s0-.33.42-.42a1.43,1.43,0,0,1,1.26.42,1.55,1.55,0,0,0,1.42.39c.54-.11.89,0,1.06.29a.76.76,0,0,0,.9.33,19.18,19.18,0,0,0,2.81-1.06,18.22,18.22,0,0,1,3.13-1.12q-2.19-.9-5.87-2.53l1.29-1.93c.38.82.85,1.17,1.39,1.07s.77,0,.71.19.22.29.87.16,1.4-.83,2.26-2.12c-.13-.65-.63-.88-1.48-.71a2.55,2.55,0,0,0,.52-2.45l2.26-.45q.38,1.94,1.67,1.68a5.91,5.91,0,0,0-.39,3.1,6.77,6.77,0,0,0,1.43-3c.39-1.42.33-2.3-.19-2.65a9.77,9.77,0,0,0,1.69-5l-.45-2.26a73.27,73.27,0,0,0,3.9-14.19c.39-.3,0-.34-1-.13a1.32,1.32,0,0,0-1.16.9l-.38-1.94a2.25,2.25,0,0,1,1.74.33q.84-.83,2.11-5.45t1-5.9a4.07,4.07,0,0,0-1.42-2.07q-2.07,1.42-1.75,3c-.22,0-.84-.28-1.87-1a24.7,24.7,0,0,1-4.91,4q-14.09,6.81-24.74,8.92a4.78,4.78,0,0,1-2.29-.55,23.94,23.94,0,0,0-2.35-.88q-13.82-.29-18.83-7l-1-5.17,1.87,1a40.32,40.32,0,0,1,3.76-8.12q-.39-.25-3.94,2.12-1.74-2-3.35-1.69A7.91,7.91,0,0,0,82.76,366a7.92,7.92,0,0,1-2.39,1.48q-4.52.9-5.16-2.33-.51-2.58,1.75-5.55t4.53-3.41c.65-.13,1-.08,1,.13s.28.28.71.2,1.15-1.23,2.17-3.45a37.18,37.18,0,0,1,2.3-4.48l1.55,1Q92.61,348,95.91,346q-.38-1.94-1.16-.78Q94.17,344,96,342.93a42.16,42.16,0,0,1-6.84-2.34,16.43,16.43,0,0,1-2.2,4.13L85,345.1a1.93,1.93,0,0,1-1.29-1.42q-.58-2.91,1.82-6.06l2.26-.45q.57,2.9,3.16,2.39.32-.06,4.88-2.47a56.62,56.62,0,0,1,6.75-3.18c0,.22.32.5.84.84a4.54,4.54,0,0,1-2.59,2.19q-2.59.51-2.71,1.54a20,20,0,0,0,5.68-.12,7.88,7.88,0,0,0,4.2-2.51q-2.38-1.87-3.16-2.4.32-1.74,3.75-4.77a3,3,0,0,0-2.77-.46,6.31,6.31,0,0,0-1.87.71l-1.29.25q2.71-1.54,7.88-4.24a27,27,0,0,0,4.91-.63,49.53,49.53,0,0,1,7.75-3.21,13.62,13.62,0,0,0,2.32-.12,27.63,27.63,0,0,0-6.92,4.05,5.35,5.35,0,0,0,3,.07c.43-.08.44-.31,0-.68s-.29-.61.36-.74c.43-.08.67,0,.71.2s.28.28.71.19c1.29-.25,1.57-.53.84-.84l1.42.39c-.08-.43.3-.73,1.16-.9.43-.08.58.11.45.58s.13.64.77.52a8.2,8.2,0,0,0,3.36-1.67l-2.65.19a4,4,0,0,0-2.77-2.14,114.39,114.39,0,0,1,13.56-4.36q6.78-1.34,5.18-9.41c-.87,1.29-1.23,2.26-1.1,2.9l-2.26.45q-.77-3.87,1.17-4.26a1.91,1.91,0,0,1,1.42.39c.91-1.07.5-1.44-1.22-1.1a8.83,8.83,0,0,0,1.17-2.58,19.16,19.16,0,0,0,.08-4.71c-.26-1.29-.51-2-.77-2.2l-.64.13c-.26.95-.56,2.24-.91,3.87l-.84.84a18.85,18.85,0,0,0,.28-8.78,1.45,1.45,0,0,0,1.93,1.29q1-1.86-.82-7.55a15.12,15.12,0,0,0-.65,1.81,3.42,3.42,0,0,1,.58,2.91,10.58,10.58,0,0,0-1.48-.71q0-18.45-1.56-26.53-.57-2.9-2.7-3.49a3.84,3.84,0,0,1,.84-.84,3.76,3.76,0,0,0,.84-.84c0-.21-.32-.49-.84-.84a15.52,15.52,0,0,0-2.85,2.58c0-.21.71.19,2.26,1.23q.13.65-2.85,2.58l1.55-2.32a1.92,1.92,0,0,0-1.35-.07,1.16,1.16,0,0,0-1,1.55c-.52-.34-1.74-.33-3.68.06,0-.21-.41.2-1.1,1.22a3.47,3.47,0,0,0,1.42.39,3.71,3.71,0,0,1,1.42.39,3.51,3.51,0,0,1-1.81,1c.21,0-.69-.65-2.71-1.81l-.78,1.16c1,.48,1.53.93,1.61,1.36q-4.71,1.61-13.69,5.39,3.3-3.67,6.53-4.31c.65-.13.94-.07.87.16s.11.31.55.23a18.83,18.83,0,0,0,2.91-2.25q.52-2.44.58-2.13l-3.81,1.09c.3.39,1,.48,2.06.26q-7.89,4.25-11.11,4.88c-.43.08-.64-.09-.61-.55s-.18-.64-.61-.55q-3.23.64-10,5.33a4.81,4.81,0,0,1,.39-3.1,3.47,3.47,0,0,0-2,.06,46.79,46.79,0,0,0-4.56,3.25Q90.63,276.9,90,277c-.43.09-1.4-.28-2.9-1.1a1.5,1.5,0,0,1,1.68,0c0-.21,1.1-1.22,3.43-3q-1.36-.06-5.3,2.05c-.43.09-.64-.09-.61-.55s-.29-.61-.94-.49a13.16,13.16,0,0,1-11.23-2.48,70.11,70.11,0,0,0-2.18-7.62,5.94,5.94,0,0,1-4.64-3.11,4.34,4.34,0,0,1-.25-4.65c.34-.51.08-.69-.77-.52a3.45,3.45,0,0,0-1.68.84,3,3,0,0,1-1.36.77q-3.56.7-7.61-2.86A5.9,5.9,0,0,1,54,250.93c-.13-.65.41-1.87,1.62-3.67.35-1.63-.08-2.67-1.28-3.1q-1.87-2.65.79-6.19c.26-.94-.28-2-1.61-3a5.6,5.6,0,0,1,1.36.07,5.3,5.3,0,0,0,1.36.07l.85-4.19q.71.2,6.89,6a3.15,3.15,0,0,1-.52,2.45l-1.22-1.1a8.76,8.76,0,0,0-.2,4.07,1.29,1.29,0,0,0,1.22,1.1,2.14,2.14,0,0,1,1.48.71,2.85,2.85,0,0,0,.84-2.51c-.69-1.21-.94-1.94-.77-2.2q2.2-2.45,1.49-4.32a4.9,4.9,0,0,0,2.33-1,4.27,4.27,0,0,0,1.1-2.06,14,14,0,0,1,5.82-2.83c.43-.08.67,0,.71.19s.28.28.71.2A10.14,10.14,0,0,0,81,228.14q7.5-6.18,19-9.12a22.48,22.48,0,0,0,3-1.09,22.27,22.27,0,0,1,3-1.09c.43-.08.67,0,.71.2s.39.26,1,.13a8,8,0,0,0,2.39-1.48,7.93,7.93,0,0,1,2.39-1.48l1.55,1q1.68-3.35,7.43-3.15l-1,1.55a135.75,135.75,0,0,0,15-2.29l-2.33,1.8a3.4,3.4,0,0,0,2-.06,9.66,9.66,0,0,0,2.16-.93,17.11,17.11,0,0,0,2.39-1.48q.87-.68-.29-1.45a7.8,7.8,0,0,1,2.19.07,7.79,7.79,0,0,0,2.2.07,1.32,1.32,0,0,0,1.16-.9,2.57,2.57,0,0,0,.13-1q-1.36-.06,4.13-1.15a3.37,3.37,0,0,0-.39,1.42l1.22,1.1q2.06-1.42,6.4-5L156,201.9q-2.32-1.55-3-1.43a12.36,12.36,0,0,0-4.65,1.93q.45-1.1-.77-3.88a13.1,13.1,0,0,1,1.3-3.61,8.43,8.43,0,0,1,6.14-4.57c1.07-.21,2.41.31,4,1.56a28.6,28.6,0,0,1,2.5,5.88,5.06,5.06,0,0,1-.26,2.07c0,.21.3.39.77.52a1.06,1.06,0,0,1,.84.84,1.93,1.93,0,0,1-.65,1.81q-.84.84-.78,1.16a3.64,3.64,0,0,0,1.68,0,8,8,0,0,1-1.14,2.74,4.32,4.32,0,0,0-.88,2.35,8.19,8.19,0,0,0,1.67,3.36q-.26-3,2.08-8.13.45,2.26-1.18,7.61a2,2,0,0,0,.9.32,2.15,2.15,0,0,1,.9.33,18,18,0,0,1,1.95-5.42,32.93,32.93,0,0,1,5.42-1.41q1.29-.25,4.42,2t3.32,3.2q.19,1,.31,7.49t.24,7.17l1.08,5.49,1.22,1.1q2.85-4.25-1.33-11.81a3.68,3.68,0,0,0,.91-2.19q2.38,1.88,3.6,6.33.38,3.62,1.15,7.49a46.93,46.93,0,0,1,5.86,5.89l-2,57.76c-.09.69.37,1.33,1.38,1.91s1.9,1.13,2.68,1.65q-1,1.55.12,2.32a12.45,12.45,0,0,1,3.36-3.35c-.47,1-.28,1.4.58,1.23.65-.13,1-.31,1.07-.55a.53.53,0,0,1,.42-.42c-.35.52-.35,1.64,0,3.36q1.8.65,8.58-.69a12.56,12.56,0,0,0,2.62-1.19,12.71,12.71,0,0,1,2.62-1.19,45.75,45.75,0,0,0,8.53-2.69,39,39,0,0,0-4.33,3.54c0,.22.32.5.84.84q1.16-.9,3.81-2.77,1.22,2.78,3,1.75-.78,1.16-1.42,1.29c-.65.13-1,0-1.1-.45l-.26-1.29q-3.49,2.7-2.52,2.51c-.43.09-.67,0-.71-.2s-.39-.26-1-.13q-3.23.64-12.28,7.46l3.55-.7a32.9,32.9,0,0,0,5-1.67,41.54,41.54,0,0,1,4.07-1.48l1.61-.32a43.8,43.8,0,0,0,15.44-6.74l2.58-.51c-.47,1-.28,1.4.58,1.23l-1,.19q-2.26.45-7.56,4.18a40,40,0,0,0-4.17,4.35q-3,3.45-4,3.64c-.43.09-.53-.12-.29-.61s0-.68-.61-.55c-.43.09-.58.45-.46,1.1.09.43-.19.71-.84.84a108.43,108.43,0,0,0-10.72,3.46c0-.21-.41.2-1.1,1.22a29.61,29.61,0,0,0,6.46-1.28q1.55-.64,5.3-2.05a44,44,0,0,1,4.72-1.6c.43-.08.76.18,1,.81a1.06,1.06,0,0,0,1.32.74l1.42-1.29-1.75,3-.32.06.39.26,1-.19q1.29-.25,14.22-7.84l16.54-9.65a77.55,77.55,0,0,1,10.59-4.11,4,4,0,0,0,.74,1.2A5.37,5.37,0,0,0,272.48,295.61ZM14.28,398l-1.61.32-.19-1,1.61-.32Zm5-3.67-.65,1.81-1-.13.65-1.81Zm36,12.34-3.93-1.24.19,1,3.55,1ZM62.33,261c-1.51.3-2.37-.09-2.58-1.17-.13-.65-.1-1,.1-1.19a.53.53,0,0,0,.23-.55C60.42,259.84,61.17,260.8,62.33,261Zm6,69.27q.82,5.88-3.37,6.71-1.29.26-5.16-2.33A36.78,36.78,0,0,1,63.16,328a17.25,17.25,0,0,1,2.58,1.17A15.78,15.78,0,0,0,68.32,330.29Zm.13-58.74-1,.19-1-1.49.91-.51Zm1.72,132.51-2.45-.52.19,1,2.06.26Zm37.48-53-4.33,3.54c-.22,0-.84-.28-1.87-1l-2.07,3.09a11.49,11.49,0,0,1-3.29-1.36l-1.36,1.61c-.56-.56-1-1.92-1.48-4.07l-2.26.45a31.44,31.44,0,0,0-1.56,7.35l-1.94.38a3.23,3.23,0,0,1,1.09,2.13,9.11,9.11,0,0,1,4-3.48l1-1.55a7,7,0,0,0,3.68-.06Q106.66,356.25,107.64,351Zm-9-1.57q-1,.19-1.54-2.71a18,18,0,0,0-5.75,4.83A69.75,69.75,0,0,1,98.61,349.46Zm-3.84-14.34-2.91.57-.19-1,2.91-.57Zm2.39-1.48-1.29.26q1.61-.32,1.23-2.26a7.15,7.15,0,0,0,1.35,1.75Zm8.64,33.52c-1-.69-1.57-1.14-1.61-1.36A3.76,3.76,0,0,0,101.6,368a3.51,3.51,0,0,0,2.06.26A4,4,0,0,0,105.8,367.16Zm-1.71-17.11-.19-1-1.61.32.19,1Zm6.44,8.79a5.34,5.34,0,0,0-1.58-2q-1.45-1.39-1.32-2.42a19.5,19.5,0,0,0-3.37,5q1.49-1,3.93,1.24A3.79,3.79,0,0,1,110.53,358.84Zm.77.52c-.39.3-1.12.84-2.2,1.61s-1.81,1.31-2.2,1.61a14.62,14.62,0,0,0,3.81.59A8.12,8.12,0,0,0,111.3,359.36Zm2.13-87.65-1.81,1-.13-.65,1.42-1.29Zm3.22-56.66-.25-1.29-1.61.32.26,1.29Zm4.86,50-.19-1-2.91.57.19,1Zm-.15-50-.51-.91-2.13,1.09.19,1Zm4.84-1-.19-1-3.42,1.35.19,1Zm7.57-7.54a6.2,6.2,0,0,0-2,1.06,6.34,6.34,0,0,1-2.29,1.12,6.23,6.23,0,0,1-2-.1,6.3,6.3,0,0,0-2-.1q.64-.13,4.13-1.15A7,7,0,0,1,133.77,206.63Zm-2.89,294.12-3.1-.39-.19-1,3,.07ZM130.6,211l-2.26.45-.26-1.29,2.26-.45Zm1.87,2.65-.19-1-3-.07.19,1Zm5.25,201.26c-.34-1.72-.64-2.67-.9-2.84.13.65-.26,1.51-1.17,2.58A5.1,5.1,0,0,1,137.71,414.86Zm3.56,85.85-.13,1L138,501l.13-1Zm2.59-122.63a4.54,4.54,0,0,1-2.59,2.19,3.63,3.63,0,0,0,.39-1.42,3.51,3.51,0,0,1,.39-1.42A2.69,2.69,0,0,0,143.86,378.08Zm.26-2.07-1.61.32-.19-1,1.62-.32Zm6-162.9a5.11,5.11,0,0,0-1-1.81,9.93,9.93,0,0,0-3,1.61c0,.22.58.67,1.61,1.36a5.31,5.31,0,0,0,1.23-.58A5.54,5.54,0,0,1,150.15,213.12Zm1.48,94q-2.33,1.8-2.4,3.16c.13-.47.56-.56,1.29-.26a1.06,1.06,0,0,1,.84.84,5.48,5.48,0,0,1,.07-2.19A5.32,5.32,0,0,0,151.63,307.1Zm14.6,55.15-.45-2.26a6.76,6.76,0,0,0-2.2,2.45,1.94,1.94,0,0,0-1.87-1,2.22,2.22,0,0,1-1.74-.33,3.81,3.81,0,0,0-.45,1.1,3.82,3.82,0,0,1-.45,1.1,14.75,14.75,0,0,0-7.43,1.47q-1.58,12.39-1.77,11.42a14,14,0,0,1,0,3.36,14.52,14.52,0,0,0-.07,3q0-1.67,1,3.49c1.5-.3,2.3-.23,2.39.2l1,4.84q1.55-4,1.3-5.29c.09.43-.22,1.17-.91,2.19-.52-.34-.69-.65-.51-.91a22.18,22.18,0,0,1,1.37-5q2.32,1.55,2.45,2.2.38,1.94-1.5,6a3.77,3.77,0,0,1-2.59,2.19q-.92,3.88-2.15,11.16a50,50,0,0,0,5.62-3.8,5.35,5.35,0,0,1-4.13-.53,15.58,15.58,0,0,0,3.23-2.32,2.7,2.7,0,0,1,1,1.81q.39-1.41,1.44-9.68.65-5.16,3.5-6.06a5.94,5.94,0,0,1-1.36,3.29,2.92,2.92,0,0,0,1.23-.58,15.41,15.41,0,0,1-2.6,7.22q3.22-.64,3.35,1.69Q167.44,366.71,166.22,362.25Zm-14.7,52.89-1-.13-.33,1.74.71.2Zm.82-111.21c-.22,0-.55-.23-1-.81s-.79-.85-1-.81l.7,3.55Zm2.86-97.52a23.15,23.15,0,0,1-3.5,6.06,6.34,6.34,0,0,1,2,.1,7,7,0,0,0,1.71.17,15.7,15.7,0,0,1-.12-3.16A15.65,15.65,0,0,0,155.2,206.42Zm3.45,165c-.69,1-1,1.76-.91,2.19-1.94.38-2.82.45-2.65.19a5.58,5.58,0,0,0,1.75-3A2.69,2.69,0,0,0,158.65,371.47Zm-.76-7.23a4.87,4.87,0,0,1,0,1.84c-.11.58-.18.76-.23.55a1.36,1.36,0,0,0-.51-.9l-1.62,2a5.33,5.33,0,0,1,.07-1.35l-.32-1.61Zm3.65-107.07q-.46,2.78-2.31,10.35t-1.73,8.22a6.12,6.12,0,0,0,1.06,2,7.48,7.48,0,0,1,1,1.65,21.09,21.09,0,0,0-.53,5.81,1.36,1.36,0,0,1,1,.13,12.16,12.16,0,0,1-1.49,1c.26,1.29.53,3.25.83,5.88q-1.95,3.74-1,6.58a.53.53,0,0,0,.42-.42c.06-.23.42-.42,1.07-.55.21,0,.43.48.64,1.55-.39.3-1,1.55-1.94,3.74l4.2-.83q1.91-17.49-.67-18.65,1.88-4.06.87-12.58Q162.24,264.07,161.54,257.17ZM163,303.51a16.16,16.16,0,0,0-3.68,1.74,4.76,4.76,0,0,1,3.55,1A4.69,4.69,0,0,0,163,303.51Zm-.71,91.39L160,403.74a14,14,0,0,0,.83,2.52,17.78,17.78,0,0,1,.71,1.87Q161.94,403.36,162.28,394.9Zm-.08-20.78a62.35,62.35,0,0,1-.15,7.75c-.43.09-1,.65-1.68,1.67a33.7,33.7,0,0,0,.75-4.68A15.77,15.77,0,0,1,162.2,374.12Zm8.8-11.47c-1.29-.86-2-1.51-2.06-1.94q-.08,3-.6,7.16Q169.31,366,171,362.65Zm3.23,29.89q-.33.06-1.16-.78t-1.48-.71a34.93,34.93,0,0,0,1.27,9.81q1.81-4.38,1.17-5.94a1.32,1.32,0,0,1-1-.13Zm1.44-8a5.93,5.93,0,0,0-3.43,4.7c.08.43.49.8,1.22,1.1A8.41,8.41,0,0,1,175.66,384.54Zm-.18-7.68q-2.33,3.48-2.14,4.45l.45,2.26Q174.64,382.73,175.49,376.86Zm6,27q-.59.45-4.4,3.22-.39-.25,1.11-4.58Q176,404.94,175,415.2a18.07,18.07,0,0,0,2.53-4.19,2.86,2.86,0,0,1-.3,3.58,16.23,16.23,0,0,1-2.88,2.42q.51.91-.85,4.19c2.15-.43,3.36-.55,3.61-.38l2.34-8.52Q181,406.63,181.5,403.85ZM176.21,372l-.45-2.26-1,.19.45,2.26Zm1.31-7a1.05,1.05,0,0,1-.45,1.1l-1.16-.78q1.63-7-.76-8.91A78.83,78.83,0,0,0,176,367.7Q177.77,366.34,177.51,365.05Zm.77,31-.84-.84-1.3,1.93.45.58Zm6.38-23.74a12.93,12.93,0,0,1-1.69,5c.73-.82,1.23-1.13,1.49-1a19.75,19.75,0,0,0-.91,3.87c-.3,1.85-.89,2.86-1.75,3a2.59,2.59,0,0,1-1.68,0,2.24,2.24,0,0,0,.33-1.74l-1.36,1.61c-1.64.77-2.33,1.8-2.07,3.09.21,1.08.64,1.55,1.29,1.42a1.89,1.89,0,0,1,.39-1.42c.64,1,.67,1.71.09,2.16s-1.35,1.11-2.3,2q1.22,1.1.71,1.87c-.56.56-.8,1.05-.71,1.48a5.11,5.11,0,0,0,3.17-4.32q.46-4.45,1-5.23,3,1.75,4.32,1.49Q185.28,384,184.66,372.36ZM180,376q-2.91,2.26-2.78,2.9a2.66,2.66,0,0,0,.8,1.52,2,2,0,0,1,.68.87c.13-.47.34-1.35.65-2.65S179.88,376.44,180,376Zm-.21,68.48-1.29.25-.7-3.55,1.29-.25Zm24-9.44q.45,2.25-1.89,7.42T197.28,448c-.65.13-.94.07-.87-.16s-.12-.31-.55-.23q-1.62.32-5.31,10.45-2.21,9.16-7.22,27.93.46-4.45,1.84-12.78l-1.16-.78q-3.44,6.38-5.7,10.19.52-2.45,5.72-16.9,7.39-20.25,7.42-30.32-.25-4.64,5.56-5.8,1.61-.32,4,1.72C202.64,432.72,203.55,433.93,203.76,435Zm-23.55-66.47-.32-1.61-1.29.26.32,1.61Zm-.37-8.65q-2.2,4.13.37,7a3.74,3.74,0,0,0-.19-2.65c.47.13.75-.15.84-.84a3,3,0,0,0-.38-1.94A3.62,3.62,0,0,1,179.85,359.89Zm2.26-59.83-.38-1.94c.09.43-.63.8-2.13,1.09C181.39,300.43,182.23,300.71,182.11,300.07Zm1,150.78a14.27,14.27,0,0,1,.12,2.33,14,14,0,0,0,.19,2.65c-.22,0-.58-.11-1.1-.45a1.9,1.9,0,0,0-1.42-.39A11.37,11.37,0,0,0,183.07,450.84Zm.9-59.89c0,.22-.8.49-2.52.83.43-.08,1.08.35,1.93,1.29A2.22,2.22,0,0,0,184,390.95Zm8.33-93.57-1-.13L191,299l.71.2Zm5.54-87.32q-.13-.64-.65,1.81,1.09,5.49,2.16,16,0,7-.37,21t-2.79,35.95l-2.08-81.78,1.48.71A31.63,31.63,0,0,1,197.85,210.06Zm9.37,86.38a3.76,3.76,0,0,1-.84.84,3.8,3.8,0,0,0-.84.84,2.49,2.49,0,0,0,.51.91,2.64,2.64,0,0,1,.51.9l-3.55.7q.52-.77-1-1.81a17.88,17.88,0,0,1,2.33-3.48A9.81,9.81,0,0,1,207.22,296.44Zm9.11-3.14q-3.62,2.06-4.46,4.57a38.37,38.37,0,0,0-3.93-2.91,4,4,0,0,0,3.1.39A15.83,15.83,0,0,0,216.33,293.3ZM226.11,336l-.13,1-2.45-.52-.19-1Zm4.91-.63-4.2.83-.25-1.29,4.2-.83Zm3.09-25.1-2.91.58-.19-1,2.91-.58Zm.73,22.33-.45,1.1-2.26.45Z"/><path class="cls-2" d="M268.46,239.71q-.13-.64-1.63,7l-2.58.51q-1,.19-6.83-5.69-4.2,4.19-5.82,4.51a5.86,5.86,0,0,1-3.87-.91q-2.26-1.23-2.51-2.52-1.4-7.1,2.28-8.84,5,1.37,3.68,1.62c.43-.08.62-.23.58-.45s.15-.36.58-.45q2.25-.45,5.06,1.85t3.77,2.11c.21,0,.55-.33,1-.87a2.47,2.47,0,0,1,1.32-.93Q267.69,235.84,268.46,239.71Zm12.64,35.08a32.09,32.09,0,0,0-3,7c.43-.08.86-.73,1.29-1.93-.52,1.9-1,2.88-1.43,3-.22,0-.48-.13-.77-.52a5.07,5.07,0,0,0-.49.93,5.55,5.55,0,0,1-.49.93,1.39,1.39,0,0,0,1.29-.25,7.66,7.66,0,0,1-1.68,1.67q1.54,2.71-.72,3.16c-.43.09-.56,0-.39-.26.13-.47.08-.69-.13-.65-.65.13-1,.75-1,1.87.42,1,.6,1.34.51.9a11.08,11.08,0,0,1-2.26,2.13,1.81,1.81,0,0,0,1.1.45q-2.93,9-4.81,16.38a3.79,3.79,0,0,0-2.33,1.8,3.72,3.72,0,0,1,.64,1.55,1.08,1.08,0,0,0-1.36-.07c.09.43.45.58,1.1.45l.32,1.61c-.52.77-1.49,2.09-2.91,3.93a1.87,1.87,0,0,0,1.42.39l.32,1.61a1.92,1.92,0,0,0-1.23.58q-.52,2.45-1.24,7.29-.92,7.23-1.85,21.17a104.67,104.67,0,0,0,2.09,19,191.59,191.59,0,0,0,5.76,22.34,12.16,12.16,0,0,0,1.38,2.75,12.55,12.55,0,0,1,1.38,2.75,17.67,17.67,0,0,1-1.62,3.68,30.54,30.54,0,0,1-3.34-5,84.25,84.25,0,0,1-5.84-17.63l-3.26-16.47c0-.21-.1-1-.16-2.49a23.73,23.73,0,0,0-.28-3.13q-2.6-21.63,6.69-51A111.28,111.28,0,0,1,269,291.61q2.46-6.19,10.3-17.47A2.69,2.69,0,0,0,281.1,274.79Zm127.32,9.37,1.86,33.18q-.19,27.89-10.24,48.32-1.62,2-4.53,5.93-4.79,8-12.83,21.66c-.65,1.25-1.77,3.48-3.37,6.71l-.38-1.94a12.79,12.79,0,0,0-.27,3.74,2.57,2.57,0,0,1-1-.13q-7.72,18.64-17.48,25.26a10.14,10.14,0,0,0-4.26,1.35,20.72,20.72,0,0,1-4.2,1.67,24.4,24.4,0,0,1-4.91.64l-.65.13a36.82,36.82,0,0,0-3.78,2.09,39.35,39.35,0,0,1-3.78,2.09Q327.94,437,312.42,434a86.78,86.78,0,0,1-26.86-9.45,2.46,2.46,0,0,1,2.91-.58c-.39.3-.73-.31-1-1.81q5,1.36,4,1.56c.43-.08.62-.24.58-.45l.32-.06q.64-.13,8.09,2.76t8.09,2.76a11.53,11.53,0,0,0,3.42-1.35q-7.55-4.22-10.45-3.64l-1.55.64q-.65.13-8.38-5.05c.3-.73,1-1,2.2-.77l.32-.06a1.88,1.88,0,0,1,1,1.81c1.37,1.29,2.6,1.83,3.67,1.62l1-.19,1-.19a1.36,1.36,0,0,0,.13-1q-.06-.33-16.3-14.56a3.14,3.14,0,0,0-2.84-.78q-1.8-4-5.59-11.31a2.91,2.91,0,0,0,1.23-.58,7.17,7.17,0,0,0-1.61-1.36q-3.27-9.75-6.6-21.51-.84-.84-1.16-.78-.78,1.16-.33,1.74a7.17,7.17,0,0,1,1.41,4.59,7.14,7.14,0,0,0,1.41,4.58,5.32,5.32,0,0,1-.2,2.39c-.69-1.21-1.58-2.93-2.7-5.17q-2.05-7-2.75-10.53-.13-.64-.63-5.75a64.56,64.56,0,0,1-.44-7.29q.07-2.19.08-5.55t-.17-9.36q.78-4.51,3.47-21.48.65-3.48,4.09-9.87a17.89,17.89,0,0,1-.12-4q.52-.77,8.75-15.15,5.44-9.8,6.88-17.8c.17-.25,0-.45-.45-.58l-3,3.29a31.9,31.9,0,0,0,5.63-8.83l-.77-.52q-.52.78-3.82,4.45a13.29,13.29,0,0,0,3.37-5,3.92,3.92,0,0,0,2.46-2.84q4.48-14.64,7.39-15.21c.43-.08,1.16.22,2.19.91q.32-.06,3.05-10,1.17-2.57,2.92-7.29l1.1.45c1.16-.9,1.81-1.58,1.94-2.06q-.27,2.07-1,6.9,2.65-3.54,5.66-7a13.8,13.8,0,0,1,6.17-4.41l1.22,1.1-.78,1.16q-1.29.26-1.1,1.22l-1.48-.71a7.2,7.2,0,0,0-2.88,4.09q-1.08,3.07.22,4.49,2.92-7.28,11.77-11.72l.84.84.78-1.16.65-.13c-.39.3-.47,1-.26,2.06a11.46,11.46,0,0,0,3.29-.32q4.19-.83,10.54-7.79a6.42,6.42,0,0,1,3.71.94q2.42,1.2,2.74,2.81.13.65-2.53,4.19,2.64,1.49,3.93,1.23c.43-.08.63-.23.58-.45l.32-.06q3,1.43,10,4.73l1.29-.26c-.77-.52-1.18-.88-1.22-1.1-.22,0,.37.15,1.74.33l1.1-1.22q1,.13,1.35,1.75a1,1,0,0,0-.58.45l8.51,2.34q7.67,8.22,8.63,8l.64-.13c0-.21.15-.37.58-.45q-1,.19,3.68-.06l2.19.91.38,1.94q-.53,5.81-.85,4.19a6,6,0,0,0,2.77,3.81,1.92,1.92,0,0,0,.07-1.36c.3,1.51.23,2.3-.2,2.39q1.8,2.33,5.26,13a13,13,0,0,1,2,3.3q1.29-.25.46-4.45,1,3.17,3.14,9.11a13,13,0,0,1,2.42,2.88,29.07,29.07,0,0,1,3.18,6.75A13.59,13.59,0,0,0,408.43,284.16Zm-135.16,63q.76,2.2.88,11.23a9.24,9.24,0,0,1-1.3,3.61,10.34,10.34,0,0,1-1.74-3.68l-1.34-6.78a11.14,11.14,0,0,1,2.26-2.12q.2-4.06.4-6.45Zm-.66,6.84-.45-2.26-.65.13.45,2.26Zm.57,33.43-.65.13-.9-1.16.65-.13Zm.64,1.55-.65.13-.51-.9.58-.45Zm.81-17.94-1,.19-.45-2.26,1-.19Zm.13,31.17-.65.13-.84-.84.58-.45ZM275,391.4l-1,.19-.32-1.61,1-.19Zm2.23-76.93-.65.13q-1,1.55-2.09,11.48Zm-1,89.78-.65.13-.9-1.16.58-.45Zm2.58,2.84-2.19-.91-.26.39,2.26,1.23Zm-1.22-94.36-.71-.2-.39,1.42.71.2Zm13.3-92.21q-9.6,22.7-10.57,22.89c-.43.09-.56,0-.39-.26s0-.34-.39-.26a1,1,0,0,0-.84.84c-.13.48-.31.73-.52.77l-.32-1.61q.45.59,6.24-21Zm-7.77,193.1q-1.29-1.42-4.25-4.53c.21,0,1.53.93,3.93,2.91Zm0-142.25-1.81,2.71-.71-.2,2.07-3.09Zm1.82,143.23a3.41,3.41,0,0,0-1.16.9,5.3,5.3,0,0,1-.58-1.23Zm1.11-6.26-.84-.84-.2.71.77.52Zm6.56,9.44a40.34,40.34,0,0,1-5.35-1.62,1.36,1.36,0,0,1-.9.51,22.92,22.92,0,0,1,3.87,2.59A3.56,3.56,0,0,1,292.61,417.77Zm-1.39-44.34c-.69-.08-1.48-.71-2.38-1.88l-1.53-11.11a52.81,52.81,0,0,0,1.92,6.33A53.86,53.86,0,0,1,291.22,373.43Zm-.12-32.85a14.43,14.43,0,0,1-3-.07l-.64-3.23a1.92,1.92,0,0,1,1.42.39,1,1,0,0,0,.45-1.1l1.22,1.1Zm76.35-56.7a3.44,3.44,0,0,0-.83-1.68,2.84,2.84,0,0,1-.71-1q-.64-4.91-2.57-6.2a4.88,4.88,0,0,1-4.2.83,1,1,0,0,1-.45,1.1l-.77-.52c1.94-1.5,2.59-2.19,1.94-2.06a1.37,1.37,0,0,1,1,.13l.32-.06a3.32,3.32,0,0,1-.9-1.16,5,5,0,0,0,1.23-2.26c0-.21-.37-.43-1-.65a6.12,6.12,0,0,1-1.29-.58l-1.1,1.22-.39-.26a22.85,22.85,0,0,0-1.54-4.39,1.9,1.9,0,0,1-1.23.58l-1,.19a1,1,0,0,0-.71-.2,5.51,5.51,0,0,1,2.58,1.17l.32,1.61q-3.36,3.35-4,3.48a1.87,1.87,0,0,1-1.42-.39,3.21,3.21,0,0,0,.33-1.74q-.19-1-7.48-2.21a1.36,1.36,0,0,1,.51.9c-.26.95-.71,1.48-1.36,1.61a7.77,7.77,0,0,1-2.19-.07,7.81,7.81,0,0,0-2.19-.07q-7.43,1.47-14.73,8.62a2.9,2.9,0,0,0-.07,1.36,11.11,11.11,0,0,1,3.81-2.77,1,1,0,0,1,.45.58q-2.07,1.42-4.17,2.67a5.44,5.44,0,0,0-2.56,4l-.2.71a1.33,1.33,0,0,0-1.16.9l1.1.45q-2.4,1.48-2.86,11-.39,3.1-.58,2.13a2.22,2.22,0,0,1,1.35,1.75q1.42-1.29,3.95-3.8l.84.84.32,1.61c-.26.95-.54,2.34-.85,4.19q-.4,8.13-.89,22.65a5.5,5.5,0,0,1,.58,1.23.29.29,0,0,1-.39-.26c0-.21-.28-.28-.71-.2s-.68,1.09-.75,3a22.45,22.45,0,0,1-.3,3.58q.64,1.56-1.62,3.68l-.32-1.61q-.25-1.29-1.11-25.95c-.08-1.54-.27-3.64-.57-6.26q-3.58,12.45-1,15.29l-.52.77a1.36,1.36,0,0,0-1-.13l.83,4.2c.77.52,1.07.91.9,1.16a10.27,10.27,0,0,1-1.61-1.36,10,10,0,0,1-1.81,1l.32,1.61c.69-1,1-1.65,1-1.87l.51,2.58c-.52-.34-.93-.15-1.23.58.6-.34,1.2-.12,1.81.65a13,13,0,0,1-2.33,1.8l.58,2.91q2.87,16.21,2.74,15.56a9.61,9.61,0,0,0-.71,1.48,104.9,104.9,0,0,0-3.27-11.43,13.5,13.5,0,0,1,.09,3,18.5,18.5,0,0,1-.2,2.39,3.78,3.78,0,0,1-.94,1.19,3,3,0,0,1,0,3.36q-.91-1.16-.38-1.94-1,.19-1.22-1.1l1.66,8.39-.58.45q-1.1-.45-3.08-7.11a8.13,8.13,0,0,1,0,2.52,9.19,9.19,0,0,0-.13,1.87,61.63,61.63,0,0,0,1.92,6.33,3.45,3.45,0,0,0-1.42-.39q.83,2.53,0,3.36a7.46,7.46,0,0,1-2.77-4.65,15.75,15.75,0,0,0-1.28-3.94,19.42,19.42,0,0,1-1.54-2.71,1,1,0,0,1-.2.71,65.2,65.2,0,0,1-1.85-9.36q-1.61-1.35-1.35-1.75a3.57,3.57,0,0,0,.84.84,3.48,3.48,0,0,0-2.32-3.23l1.92,9.69c.21,1.08.21,1.64,0,1.68q.38,3.62,1.07,10.52l-.32.06q-1.87-2.65-3.4-8.72-.2.71-.52,2.45a13.55,13.55,0,0,0-1.74-.33q-.51-2.58-1.54-6.07-1.28-4.78-1.54-6.07l-2.78,1.22c-.65.13-1,.09-1-.13q.76,5.56,2.16,16l-.71,1.48a29,29,0,0,0,2.31,6.59,15,15,0,0,0,.76,5.55q3.46,12.4,8.61,19.77.64-.13,1.16.78a7.89,7.89,0,0,0,2.45,2.2c.52-.77.91-1.07,1.16-.9-.69,1-1,1.66-1,1.87a22.7,22.7,0,0,1,5,3q8.45.34,7.81.47a12.76,12.76,0,0,0,4.39-1.54q.52-.77,1.88-2.38a22.78,22.78,0,0,0,7.82-4.57,79.59,79.59,0,0,0,10.68-12.18,78.71,78.71,0,0,1,6.61-10.7q1.88-4.06,4.67-12a29.17,29.17,0,0,1,2.21-5.8q7.26-14.18,9.34-22.31a46.37,46.37,0,0,0,2-8.45.93.93,0,0,1-.45-.58q.85-4.19,2.29-12.19a72.37,72.37,0,0,0-.63-8.26,7.77,7.77,0,0,0,.91-2.19c-.86.17-1.33,0-1.42-.39q.91-.51,0-8.71a.93.93,0,0,1-.71-.2C367.5,286.44,367.74,285.39,367.44,283.88ZM289.5,332.5a3.74,3.74,0,0,1,.19,2.65l-1,.19-.32-1.61Zm.5,7.62-.32-1.61-1,.19.32,1.61Zm2.95,40.35q-.45-.58-2.13-2.26a1.91,1.91,0,0,0-.07,1.36l-.45-2.26c.3.39.88.5,1.74.33A8.25,8.25,0,0,1,292.95,380.47Zm-.59,2.13-1,.19-.51-2.58,1-.19Zm1.6-24.14-.65.13-.84-.84.58-.45Zm3.09,3.75c0-.21-.3-.39-.77-.52l.89,4.52a3.41,3.41,0,0,0-1.16.9q-1.61-3-1.09-3.81a19.12,19.12,0,0,1,1.75-3ZM296.17,351l-.32-1.61-.65.13.32,1.61Zm1-91.46-.39,1.42-.71-.2.39-1.42ZM299,368.86a2.69,2.69,0,0,1-1.81-.65,8.64,8.64,0,0,1,.83,2.52C298.92,370.56,299.25,369.94,299,368.86Zm.24,9.68-.45-.58-.84.84.13.65Zm4.35-132.37c-.22,0-.58-.11-1.1-.45q-.79,4.52-1,3.55c-.65.13-1.58,1.1-2.78,2.9a1.06,1.06,0,0,1,1.1.45c-.22,0-.76,1.27-1.62,3.68Q300.44,253.85,303.62,246.18Zm-3.74,118.49-.45,1.1-.65.13.39-1.42Zm1.76,20.79-.65.13-.45,1.1.71.19Zm9.47,37.71-2.26.45a.76.76,0,0,1-.9-.32c-.18-.3-.37-.43-.58-.39a8,8,0,0,1-6.26-1.11Q304.92,422.38,311.12,423.17Zm-9-66-.32-1.61-.65.13.32,1.61Zm2.06,1.94-.39-.26L303,360l.45.58Zm.18-114.44-.71-.2-.07,1.35.65-.13Zm4.26,148.78-.26.39-.77-.52.26-.39Zm6.84-58.72-1,.19-.45-2.26,1-.19Zm1,5.17-.39,1.42-.71-.2.39-1.42Zm.34-10.13-.65.13-.33,1.74.71.2Zm.5,5.94-.65.13-.26-1.29.65-.13Zm.58,2.91-.39,1.42-.71-.2.39-1.42Zm.53-34.66-.32-1.61-.65.13.32,1.61Zm13.45-103.31-1,3.22,1.87,2.65q.45,2.26-1.82,4.39a8.75,8.75,0,0,1-3.55,2.38q-7.11,1.4-8.64-6.34-1-4.84,6.34-7a5.27,5.27,0,0,0,1.23-.58,5.51,5.51,0,0,1,1.55-.64Q331.35,198.09,331.86,200.67ZM330,277.54l-1.42,1.29-.45-.58,1.42-1.29Zm2.07-1.42-1.16.9-.13-.65.84-.84Zm12.58.87c.09.43-.31,1.29-1.17,2.58l-.19-2.65-.77-.52c-.17.26-.9.51-2.2.77q.32-.06,1.68-1.67c.08-.69-.51-1.13-1.77-1.33a11.06,11.06,0,0,0-3.84.09,5.55,5.55,0,0,0-1.55.64l-1.29.26a9.18,9.18,0,0,1,3.75-1.41Q343.71,272.47,344.61,277Zm-8.33-57.4-.58.45-.77-.52.58-.45Zm9.7,23.58-3.94.44a7.24,7.24,0,0,0-3.55,2.38.29.29,0,0,0,.26-.39l1-.19q1.29-.25,4,1.56l.78-1.16c0,.22.49.24,1.35.07-.22,0-.84-.28-1.87-1A2.36,2.36,0,0,0,346,243.17Zm-1.69,37.24a.93.93,0,0,1-.71-.2,1.36,1.36,0,0,0-1-.13,5.3,5.3,0,0,0-2,1.58,21.73,21.73,0,0,1-2,1.9q6.13-1.21,5.1-1.34C343.42,281.14,343.63,280.53,344.28,280.41Zm-2.49-12.59-.13-.65-2.91.57.13.65ZM345.6,265l-2.58.51-.39,1.42,2.58-.51A3.39,3.39,0,0,1,345.6,265Zm-.24-36.85-.19-1-1.29.25.19,1Zm13.38-7-.19.71-2.19-.91.2-.71Zm1.13,46.41-1.62.32-.19-1,1.62-.32ZM361,222.42a1,1,0,0,0-.2.71,1.17,1.17,0,0,0-1.55-1C360.32,221.88,360.91,222,361,222.42Zm14.71,4.81-3.62.38-.19-1,3.68-.06Zm-.59,5.48a2.53,2.53,0,0,1,.13-1l-.13-.65,1-.19.71.2Q376.85,231.36,375.1,232.71Zm5.28,155.63-.65,1.81-.71-.2.65-1.81ZM401,331.26a103.26,103.26,0,0,1-2.36,15.23,2.11,2.11,0,0,0,.32,1.61c0,.91-.23,1.39-.55,1.45s-.6.34-.84.84-.47.76-.68.8a1.36,1.36,0,0,1,1,.13,3,3,0,0,0-1.23.58A1.9,1.9,0,0,0,398,352q-.72,3.16-1.6,6.35a12.11,12.11,0,0,1-3.72,5.77,1.89,1.89,0,0,0,.58,1.23c-.26-.17-.78,0-1.55.64a1.89,1.89,0,0,0,1.36.07,32,32,0,0,0-2,6.77c-.77-.52-1.27-.76-1.48-.71.43-.08.51-.21.26-.39l-3.11,4.64a2.67,2.67,0,0,0,2.06.26l.65-.13a36.49,36.49,0,0,0-1.3,5.29,65.37,65.37,0,0,0-4.4,6.57c.21,0,.19-.71-.06-2a20.59,20.59,0,0,1-1.36,1.61,3,3,0,0,0-1.36-.07,3.55,3.55,0,0,0,.46-2.77,12.78,12.78,0,0,1-2,1.74,7.84,7.84,0,0,1,1.55-2.32c.9-1.07,1.08-1.89.52-2.45q4.13-2.83,3.43-6.38a5.5,5.5,0,0,1,1.23-.58,4.1,4.1,0,0,1-.25-3q1.55-2.32,4-6.83,1.1-2.9,2.73-8.26a20,20,0,0,1,2.3-6.16,32,32,0,0,0,3-8.8q1.11-5.42,2.53-6.71A39.93,39.93,0,0,1,401,331.26ZM382.45,388.6c0-.21-.67.58-1.88,2.38a.87.87,0,0,0,1.16.78,19.65,19.65,0,0,0-2.13,2.77Q379.09,388.59,382.45,388.6Zm1.82-4.39-1.43,3-.71-.2,1.43-3Zm2.52-2.51a14.42,14.42,0,0,0-2.33,1.8,6.66,6.66,0,0,0,.91-2.19A3.32,3.32,0,0,0,386.79,381.7Zm.59-2.13L385.31,381l-.13-.65,1.75-1.35Zm3-5-1.61.32c.34-.51.5-.88.45-1.1Zm5.13-14.77-.65.13-.25-1.29.65-.13Zm2-101.72q-.9-1.16-2.77-3.81-.07,1.36,3.66,8.33A8.22,8.22,0,0,0,397.57,258.12ZM401.95,326l-.65.13-.2,2.39,1-.19Z"/><path class="cls-3" d="M501.78,152.3A73.51,73.51,0,0,0,504,167q-.84-.84-1.48-.71c.26,1.29.62,2,1.09,2.13a23,23,0,0,1-1.07,3.9,8.13,8.13,0,0,0,0,6l-2.26.45q0,1.68,1.93,4.65.9,4.52-2.67,10.26a10.65,10.65,0,0,0,.57,3.74q.77,3-1.11,3.74.19-.71,1.35,1.75.12,5.69.16,16.07.31,5,.62,9.94-.34,6.78-3.76,8.12-.1,13.1.53,24.72a22.72,22.72,0,0,0-.79,6.2q.81,10.91,2.45,32.73-.79,6.19-1.46,18.07a28.61,28.61,0,0,0,2.17,9.3q-1.36,3.29-1.43,3c.17.86.36,1.27.58,1.23a1,1,0,0,1,.71.19,80.07,80.07,0,0,0,2.95,9.82,47,47,0,0,0,2.5,7.56,7.39,7.39,0,0,1,3,1.75q0,1.68,0,5,3.66,6.66,11.32,19.9a71.22,71.22,0,0,0,10.34,25.13,30,30,0,0,1-6.32-4.79c0,.21-.2.71-.71,1.48q.06-1.36.9,2.84a15.88,15.88,0,0,0-8.06-3.44,1.87,1.87,0,0,0-.39,1.42q.06.32-3.54-2.65-.78-.52-2.06-3.62a4.84,4.84,0,0,0-2.58-1.17L504.11,388q-2.13-2.27-1.48-4.07c-1-.69-1.66-1-1.87-1a32,32,0,0,0,2.75,10.53q4.3,9.88,4.37,10.21l-1.81,2.71q-3.74-1.95-6.79-8.89t-7.82-9a1.89,1.89,0,0,0-.07,1.36c.13.65.08,1-.13,1l-1.1,1.22q6.12,5.5,7,9.7a5.24,5.24,0,0,0-.65,3.48q-.58-1.23-3.74-3.62a7.15,7.15,0,0,0,.76,5.55,28.36,28.36,0,0,1,1.8,4q.13.64-1.3,3.61a16.83,16.83,0,0,0-1.56,4q-1.87-2.65-8.31-8.08.18,4.32,1.86,4.33-4.2-.85-4.64-3.11.32,1.61.72-4.84a6.29,6.29,0,0,0-1-3.17,4.48,4.48,0,0,1-3,1.93l.86,4.36.93,4.68a5.35,5.35,0,0,1-2.13,1.09q-3.23.64-9.37-11.73t-10.66-11.48a2.67,2.67,0,0,0-1.81,1,5.09,5.09,0,0,0,.26-2.06,12.42,12.42,0,0,1,4.78.4,4.42,4.42,0,0,0-.12-2.32q.57,2.9-5.79-10.6a153.7,153.7,0,0,1-8.13-32.61q-1-6.52-1.28-6.46l1.29-1.93a9.19,9.19,0,0,1-2.19-4.26,3.81,3.81,0,0,0-2.84-.78,16.89,16.89,0,0,1,.06,2c0,1.12-.33,1.74-1,1.87-.43.08-.62,0-.55-.23s-.23-.29-.87-.16a.58.58,0,0,0-.52.77q.14-6.07,3-6.64a1.48,1.48,0,0,1,1.39.23c.28.28.53.4.74.36q.78-1.16-.5-5.94-.77-3.87,2.4-4.84a4.87,4.87,0,0,1,1.81.65,13.58,13.58,0,0,1-2.72,4.9q.45.59,3,5.11a6.52,6.52,0,0,1,1.49-2.64,16.84,16.84,0,0,0-.57-4.58q.38,1.94-2.89-7.82c.17-.25,0-.56-.51-.91a23.15,23.15,0,0,1-2,3.42q.72-4.84-1.08-7.17c-.56.56-1.08,1.89-1.56,4a40.79,40.79,0,0,0-.17-9.36,4.39,4.39,0,0,1,.12,2.32l1.93,1.29q.65-1.8-.3-8.33A9.56,9.56,0,0,0,445,299.4q-.44-5.61-1.38-17.17-2.17-14.33-1.09-34.34,1.06-16.65,2.14-33.3-.78-.51-3,.77a9.12,9.12,0,0,0-2.78,2.06q-1-1.48-5.22-2.66.19,1,.52-2.45-.52-.91.84-2.51a20.48,20.48,0,0,1-2.52-.85,4.37,4.37,0,0,0-4,.12l-2.9-1.1-.25-1.29-4.84,1c0-.21.28-.84,1-1.87q.06-1.35-2.77-2.14l-1.81,2.71a3.16,3.16,0,0,1-1.74-.33,4.89,4.89,0,0,0-.59,3.81q-1.48-2.39-.12-4a1.06,1.06,0,0,0-1.1-.45q4.33-5.21,2.53-7.55.19,1,2.77,2.14,6.47-6.31,6.15-6.25a21.86,21.86,0,0,1,8.65-.37q2.13-2.77,1.69-5-.13-.64-4-3.24-1.62,2-4.21,5.87-1.61-1.36-2.58-1.17.33-5.1,1.89-7.42l.78-1.16a4,4,0,0,1-1.35-1.75l3.48,2.33a13.34,13.34,0,0,1,6.14-2.89l1.62-.32a23.13,23.13,0,0,0,1-3.55c.31-1.85,0-2.69-.83-2.52a9.57,9.57,0,0,1,.68-2.48,7,7,0,0,0,.49-3.45,3.23,3.23,0,0,0-1.09-2.13c-.22,0-.47.48-.75,1.32a4.06,4.06,0,0,0-.29,1.9q-1.55-1-1.67-1.68-.45-2.26,2.53-5.87c.25.17.26.74,0,1.68a3,3,0,0,0,.38,1.94,21.21,21.21,0,0,0,4.27-5.54l-2.32.12.38,1.94-.57-2.91a29.09,29.09,0,0,0-.25-3q-.45-2.25-5-3,1.16-.9,3.43-3a4.08,4.08,0,0,0,1.87,2.65,6,6,0,0,1,5.11-4.7q.64-.13,3.29,1.36.71-1.48,2.88-4.93a8.28,8.28,0,0,1,5.4-4.09c.65-.13,1-.08,1,.13s.39.26,1,.13q1.29-.25,2.27-3.8a5.6,5.6,0,0,1,1.35.07,6.11,6.11,0,0,0,2-.06q-.65.13,5-3.35c-.13-.64-.95-.82-2.45-.52q.52-.77-.64-3.23a4.6,4.6,0,0,0-2.64-3.17l-1,1.55A3.16,3.16,0,0,1,460,126a5.53,5.53,0,0,0-.55,1.45,5.61,5.61,0,0,1-.55,1.45q2.32,1.55,2.64,3.17A33.61,33.61,0,0,0,456.9,129q-.58,2.13-3.63,5.41,3.23,1,4.45.46c-1.08.21-1.49,1-1.23,2.26-1.08-.9-1.93-1.29-2.58-1.17a3.72,3.72,0,0,0-1.55.64,2.51,2.51,0,0,1-.91.51l1.3-1.93c-.17-.86-1-1.14-2.52-.84a3.56,3.56,0,0,0,.42-1.26,2.07,2.07,0,0,1,.75-1.32,3.72,3.72,0,0,0-1.68,0c-1.08.21-1.55.64-1.42,1.29q.13.65.72-3.16,12.66-5.52,13.63-5.71a32.35,32.35,0,0,1,8-.08q5.45.43,6.35,1.59,1-1.54-.83-2.52a26.6,26.6,0,0,1,13.54,4l-1.94,2.06q.13-2.71-3.41-3.69a3.42,3.42,0,0,0,.06,2q.26,1.29,2.86,4.3t3.9,2.75a3.65,3.65,0,0,0,1.55-.64,2.57,2.57,0,0,1,.9-.52q-.07,1.36,1.74,3.68a6,6,0,0,0,3.87,2.59ZM441.66,345.35a9.77,9.77,0,0,0-5.11,6.38q-4.71,1.61-5.44,8.12l-2.58.51a7.23,7.23,0,0,1-3.28-4.72q2.77.46,3.82-4.45c.51,1.47,1.2,2.11,2.06,1.94a6.22,6.22,0,0,0,4.2-2.51,34.7,34.7,0,0,1,4.21-5.86A4,4,0,0,0,441.66,345.35Zm-14.21,2.81-1.94.38-.26-1.29,1.94-.38Zm6.12-174.32-2.58.51-.25-1.29,2.58-.51Zm4.3,160.85a1.59,1.59,0,0,0-2.26.45l-2.32-1.55,3.36-1.67A10.34,10.34,0,0,0,437.87,334.7Zm2.47-130a33,33,0,0,0-3.75,1.41l.7,3.55,2.58-.51A12.51,12.51,0,0,0,440.35,204.71Zm.1,75.13a153.48,153.48,0,0,0,.85,24.66l-1.73-3.68q-.32-1.61-.85-24.66Q439.81,276.62,440.45,279.84Zm.62-47.76-.78,4.52-1-.13.85-4.19ZM446,199.24a21.16,21.16,0,0,1-5.43,4.76l.51,2.58c.86-.17,1.36.07,1.48.71a5.48,5.48,0,0,0-1.24,3.93l1.3-1.93q3.09,2.08,2.77.46Q445,209.5,446,199.24Zm-2.26,120.89-1.29.25-.38-1.94,1.29-.25Zm1.5-129.8-.84-.84-1.55,2.32,1.1.45Zm25.87-55.78-2-1.62a7.55,7.55,0,0,1-3.68,1.74,3.78,3.78,0,0,0,1.8,2.33l3.23-.64A2.71,2.71,0,0,1,471.09,134.55Zm0,156c-1,1.55-1.26,2.71-.65,3.48a14.65,14.65,0,0,0,1.29,1.42Q471.92,291.39,471.08,290.55Zm5.38,17-4.5-9.17a14.9,14.9,0,0,0-.59,5.49,4.2,4.2,0,0,0,3.35,3.36,4.37,4.37,0,0,0,.12,2.32Zm2-71.19q-1.69,6.71-1.52,44.92a4,4,0,0,1-2,3.42,76,76,0,0,1,1.46,12.46q-.26.39,1.79,9,1.21,6.14-.6,8.84a20.33,20.33,0,0,0-3-4.78,3.17,3.17,0,0,0-1,1.87q1.08,7.17,3.77,19a13.34,13.34,0,0,0,3.82-4.45l1.93,1.29a23.17,23.17,0,0,0-1.92-6.33,4.33,4.33,0,0,1,.51,4.26c-.86.17-1.44.07-1.74-.33l-1.6-8.07a5,5,0,0,1,2.26-2.12q-.17-12.71-.72-25.69a22.51,22.51,0,0,0-1-3.49q-.13-2.32-.79-24.34a72,72,0,0,0,.48-11.16Q478.6,245.46,478.49,236.42Zm0,84.88-1,.19-.38-1.94,1-.19Zm4.22-192.4-.7-3.55-1.29.25.7,3.55Zm4.14,205.84a12.14,12.14,0,0,1-5.16-4l2.91-.57a7.43,7.43,0,0,0,1.09,2.13A7.67,7.67,0,0,1,486.86,334.74Zm6.38-205.24-1,.19L491,128.27l.9-.51Zm9.7,172.87-1.29.25-.51-2.58,1.29-.25Zm8-5.6-.58,2.13-1-.13.58-2.13Zm23.79,15.09-1.29.25-.51-2.58,1.29-.26Z"/><path class="cls-4" d="M758.61,322.93q-.45-2.25-1.11,7.94.06.32-1.26,1.26a10.2,10.2,0,0,0-2.75,3.9,18.19,18.19,0,0,1,.12,4q-.46,1.1-2.43,4.67t-1.46,4.48q-1.29.26-7,1.73-1.17.9-.2,2.39l1.48,2.39q0,1.68,0,5l.77.52-2.58.51c-.43.09-1.42-.39-3-1.43l-1.29,1.93q-1.16-.78-3.16-2.39c0-.22.1-.58.45-1.1a1.16,1.16,0,0,0,1.55,1l-1.09-5.49a5.69,5.69,0,0,0-1.74-.33q-.13,1-.65,3.48c0-1.12-.64-1.55-1.93-1.29a6.11,6.11,0,0,0,2.27-3.8c.17-.26,0-.45-.45-.58-.48,1-1,1.55-1.68,1.67l-.32.06c0-.22-.28-.28-.71-.19s-.77.93-1,2.55a16.54,16.54,0,0,1-.81,3.52c-.69-1.21-1.56-2.83-2.64-4.85l-1.29.25c-.31.73-.2,2.39.31,5-.48-.13-1.16-.78-2.06-1.94a6.85,6.85,0,0,1-.78,2.84q-1.75-.33-6.12-7.18l-5.21-6a15.83,15.83,0,0,0-.38-3.61,28.56,28.56,0,0,1-2.19-2.59q-1.48-4.07-4.95-11.43-2.07-1.93-5.86-5.89a5.06,5.06,0,0,0-2.77-.46,16.77,16.77,0,0,0-1.29-1.42q-.84-.84-18.24-10.82a5,5,0,0,0-3.54-2.65,153.32,153.32,0,0,1-15.92-10.94q-2.72-.13-7.61-3.69A41.87,41.87,0,0,0,641,289.5a9.59,9.59,0,0,1-4.12-3.88,5.33,5.33,0,0,1-1.36-.07,12.45,12.45,0,0,0-5.35-3.3l-4.77-2.08q-8.64-6.34-26.49-18.58l-1.29.26-.2,2.39q.13.65,5.34,6.66a4,4,0,0,0,1.2-.74,3.87,3.87,0,0,1,1.52-.8l-.78,1.16q7.92,6.15,24.29,17.67a13.85,13.85,0,0,0,5.48,2.27q1.22,1.1,5.93,4.53a68.38,68.38,0,0,0,7.54,4.21q1.09,2.13,5.19,4.17t5.12,3.85q-4.07-1.88-15.22-7.39a34.87,34.87,0,0,0-5.86-4.21c-1.16-.21-2.79-.56-4.9-1q-16-7.91-25.85-15.35-1.61-1.36-5.93-4.53.51,2.59,1.52,12.78l5.38,17.05a39.65,39.65,0,0,1,3.41,7,11.7,11.7,0,0,0,5,5l-2.59,3.87Q610.42,320,608,316t-4.53-7.66l-1,1.55q1.85,11,2.36,13.62a40.47,40.47,0,0,1,.31,8.33,19.13,19.13,0,0,0,1.86,4.33l2.43,12.27-2.74.54-1.78.35c.21,0-.32-.49-1.61-1.36a34.79,34.79,0,0,1-4.53,5.93,9.7,9.7,0,0,1,1,3.17,15.81,15.81,0,0,1-3.49,1,27.92,27.92,0,0,1-2.27,3.8,10.19,10.19,0,0,1-4.33,1.86,35.62,35.62,0,0,1-6.26-1.11q-.84.84-.78,1.16.25,1.29,4.18,5.88a3,3,0,0,0,3,1.43,9,9,0,0,1-1.17,2.58q2.05,3.62-.73,8.2l-.13,2.71-2.26.45a23.45,23.45,0,0,0-6.32-3.11,6.55,6.55,0,0,0-1.22-2.78l-.06-.32q.06.32.78-1.16a26.72,26.72,0,0,1-.38-3.62l3.11-4.64A2.45,2.45,0,0,1,579.8,367q-2.38-3.55-4.45-2.14a1.16,1.16,0,0,0,1.55,1Q574.57,366,575,369t-1.85,3.38a3,3,0,0,0-2.71-.13,19.81,19.81,0,0,1-4.11-8.92l-.32-1.61a6.37,6.37,0,0,1-3.35-1.69,6.9,6.9,0,0,0-.19-2.65q-.52-.91-6.13-.46a12.33,12.33,0,0,1,0-3.52,12.8,12.8,0,0,0,.1-2.87q.13.65-5.85-10.92a1.33,1.33,0,0,0-1.42-.39l-11.59-41.66-4.41-22.28q-.38-1.94.66-6.84c0-.21-.26-.45-.64-.71a1.57,1.57,0,0,1-.71-1q-.13-.64.09-9.75-.9-2.84.15-7.75-.06-.32-2.38-5.23a2.68,2.68,0,0,1,1.81-1q-.05-5.35.48-14.52l-.51-2.58a70.13,70.13,0,0,1,.47-9.49,6.52,6.52,0,0,1,1.49-2.64q-.2.71-.83-2.52l1.94-.38a7.76,7.76,0,0,1-.33,3.42q2.58,2.85,2.83,4.14a4,4,0,0,1-.59,2.13,4,4,0,0,0-.58,2.13,1.32,1.32,0,0,0,.51.91,21.3,21.3,0,0,0,3.76-9.8q0-5,.41-9.81,3.23-2.31,3.11-3a8.74,8.74,0,0,0,3.55-2.38,5.67,5.67,0,0,0,1.42,2.07c.52-.77,1-1.2,1.42-1.29a5.7,5.7,0,0,1,5,1.69l.65-.13q3.87-.77,4.71.08a1.73,1.73,0,0,0,1.33-.93c.24-.49.46-.76.68-.81a6.52,6.52,0,0,0,2.19.91,3.82,3.82,0,0,1-.1,1.19,4.8,4.8,0,0,0,0,1.84,8.71,8.71,0,0,0,1.29,3.1,1.88,1.88,0,0,1,1.81-1l.84-.84a4.12,4.12,0,0,0-.61-1.39,4,4,0,0,1-.61-1.39l1.49-2.64q-10.69-15-10.81-15.64-.19-1,1.36-3.29a10.87,10.87,0,0,0-3.93-2.91q-.52-.9-1.73-3.68l-1.1,1.22c-.6-.77-1.53-2-2.77-3.81.21,0,.84.28,1.87,1l1-3.22a3,3,0,0,1,2.2-2.45q1-.19,5.73,5.24,5.66,6.6,6.38,6.79,2.9,1.11,8.12,3.76,1.28,3.1,6.05,6.85.51.91,13.47,10.42a19.45,19.45,0,0,0,4.13,2.2l5.8,3.88q3.93,2.92,5.8,2.21,5.48,3.95,4.83,4.08c.43-.08.63-.23.58-.45l.32-.06q3.22-.64,6.7,5a10.69,10.69,0,0,0,1.28,3.1,102,102,0,0,0,10.64,6.28q1.16-.9-.38-1.94,12.44,8.61,34.74,21.31v-3.36a15.2,15.2,0,0,0,1.42-1.29,7,7,0,0,1,0-1.84,7.69,7.69,0,0,0,0-1.52q.77,2.2,2.44,7.23l2.26-.45q.33-1.74-.5-7.62-.25-1.29-1.47-5.75t-1.73-7a3.87,3.87,0,0,0,.45-1.1q-1.16-4.13-2-15a91.8,91.8,0,0,1-2.11-9,56.14,56.14,0,0,1-.43-12.33.94.94,0,0,1-.45-.58q-.37-8.64-.33-25.43a7.65,7.65,0,0,0,.55-2.29,29.71,29.71,0,0,0-.15-4.16,20.1,20.1,0,0,0,2.08-4.77l.32,1.61a1.32,1.32,0,0,0,1,.13q1-.19,1.55-2.32.62,13.3.42,12.33a9.43,9.43,0,0,0,1.8,4q-.12-4-.1-12.39a34.86,34.86,0,0,0,1.57-9q-.64-3.23-1.46-9.11.71-3.16,1.63-8.71a53.87,53.87,0,0,1,.28-8.78,33.28,33.28,0,0,0,1.73,5.36,12.26,12.26,0,0,0,1.88-5.74q1.63-7,5.15-21.48c.08-.69.73-1.37,1.94-2.06a12.21,12.21,0,0,1-.34,6.78A2.4,2.4,0,0,0,690,98l.64,3.23a27,27,0,0,0,.38,3.62l1.29-.25a85.36,85.36,0,0,1,1.89-9.1,38.34,38.34,0,0,1,2.59-5.55q1.74-3,3.64-12.13a10.56,10.56,0,0,1,3,.07l.45,2.26a17.3,17.3,0,0,0-3.12,11.35.87.87,0,0,0-.78,1.16c-.21-1.07.06-.79.84.84a6.51,6.51,0,0,0,.57,2.91,10.41,10.41,0,0,0,2.71,1.81c.25.17.51.9.77,2.2a45.64,45.64,0,0,1-.59,6.32,44.93,44.93,0,0,0-.59,6.32c0,.22.45.58,1.22,1.1s1.2,1,1.29,1.42a3.41,3.41,0,0,1-.39,1.42,3.18,3.18,0,0,0-.33,1.74,57.34,57.34,0,0,1,1.73,7,35.22,35.22,0,0,1-.91,3.87c-.17.26.17.3,1,.13q.64-.13,2-5.09.13-1,.85-4.19c.08-.69-.38-1.94-1.41-3.75a5,5,0,0,0,2.14-4.45q-.12-4,.59-5.48c.73.31,1.36,1.52,1.9,3.65s1.47,3.18,2.8,3.14q-1,1.88-.47,6.13T714,126.1q.06.33,1.48.71a16.26,16.26,0,0,1,2.44,5.56q.13.65-1.36,3.29.9,1.17.37,7a41.32,41.32,0,0,1,1.27,9.81q.19,1,1,8.52a9.37,9.37,0,0,0-1.62,2c.25.17,1.14.11,2.65-.19a7.82,7.82,0,0,1-.07,2.2,18.33,18.33,0,0,1-.39,2.26c-.34-.6-.36-.15-.07,1.36q.57,2.91,2.51,2.52l1-.19.58-.45q-.46,1.1.76,5.55.83.84,2.26-.45a18.56,18.56,0,0,1,1.73,5.36c.09.44.29,2.63.63,6.58s.61,6.48.82,7.55a29.38,29.38,0,0,0,1.21,6.13,7.06,7.06,0,0,0-1.36,1.61,1.32,1.32,0,0,0,1,.13,4,4,0,0,1-.58,2.13q3.61,3,1.21,9.49a11.29,11.29,0,0,1,1.61,1.36,3.5,3.5,0,0,1,.57,2.91c0,.22.32.5.84.84l7.78,42.75a41.22,41.22,0,0,0-3.54-4.33c-.35.52-.26,2.07.25,4.65q-.19-1,4.55,14.53-.46,1.1,1,6.52a36.67,36.67,0,0,0,2.37,6.91q1.22,2.78.12,4,2.76,7.18,2.37,8.59,2.05,3.62,5.79,10.6.83,2.53,2.37,6.91a2.49,2.49,0,0,0,.51.91A3,3,0,0,1,758.61,322.93ZM547.12,193.32l-.52.77-.77-.52.19-.71Zm14.66,175.91-.65.13-.25-1.29.65-.13Zm12.28-5.78-3.16-.72c.3,1.5.55,2.24.77,2.2A4.37,4.37,0,0,1,574.06,363.45ZM587,349.15q.9,1.17,2.19,2.59l1.94-.38a5.71,5.71,0,0,1,.33-1.74A6.66,6.66,0,0,0,587,349.15Zm45.87-109q-.38-1.94-4.57-6.14-2.84-.77-9.48-5.51a67.33,67.33,0,0,0-6.57-4.4q-1.81-.65-17-11.07L592,211.62c-.86.17-1.16.9-.91,2.19q.26,1.29,6.06,5.18t16.76,11.78q2.65-.18,6.9,2.66l5.29,3q4.12,2.2,4.51,4.14Zm-3.7-20.4-.58.45-1.93-1.29.2-.71Zm44.69,47.86a43.54,43.54,0,0,0-3-6.46c0-.21-.54-.45-1.48-.71a1.88,1.88,0,0,1-1.42-2.07l-1.16.9q-3.61-4.65-5.54-4.27a1.9,1.9,0,0,0-1.17.9q-1.61-3-8.89-7.64-12.9-7.51-15.6-9.33a3.17,3.17,0,0,1-1.74-.33c0,.22-.28.84-1,1.87q5.28,4.66,16.37,13.2Q654.19,256.36,673.86,267.56Zm-17.35-4.62q-3.16-2.4-6.15-4.82t-2.73-4.49q-2,1.74-1.75,3Q655.21,263.2,656.5,262.94Zm13.63-36.25.06,2-1-.13.33-1.74Zm.44,3.94-.59,3.81-.71-.2.65-3.48Zm1.2-78.74-1,.19.19,2.65.65-.13Zm2.81,14.21-1,.19.25,3,.65-.13Zm19.62-29.71a15.64,15.64,0,0,0-.9-2.84q-1.29.26-1,1.87C692.51,136.28,693.13,136.6,694.21,136.39Zm11.1-60.91-.39,1.42-.71-.19.39-1.42ZM718.65,360l-.39,1.42-.71-.2.39-1.42Zm5.94-180.32a19,19,0,0,1-1.61-1.36q-.2.71-.84,2.52a7.3,7.3,0,0,0-.59,2.13,2.85,2.85,0,0,0,1.35,1.75,44.42,44.42,0,0,0-.27,5.42,10.18,10.18,0,0,1,.51,4.26q1.09,2.14.83,2.52a2.85,2.85,0,0,1,1.75-1.35v-5a19.1,19.1,0,0,0-1.93-4.65,7.77,7.77,0,0,0,.91-2.19A7.28,7.28,0,0,1,724.58,179.7Zm2.08,20.72q-.45-2.25-3-1.75.7,3.56-.14,4.39l1.55,1C726.25,202.29,726.8,201.06,726.67,200.42Zm-1.64-49-.33,1.74L724,153l.39-1.42Zm12.32,216.63a5.28,5.28,0,0,0-1.23.58l-1.29.26-.32-1.61a5.6,5.6,0,0,0,1.23-.58,5.24,5.24,0,0,1,1.23-.58Zm4.86-7.67-.57-2.9-1.55-1a9.31,9.31,0,0,0-.71,1.48q-.46,1.1-.78,1.16c1,.69,1.59,1.25,1.67,1.68Zm2.64,3.17-.2.71-1.55-1,.2-.71Zm1.35-89.84q1.29-.25.51,2.58c-.08-.43-.65-1-1.67-1.68A1.89,1.89,0,0,1,746.2,273.72Zm15.31,23.14c.26,1.29-.37,2.09-1.88,2.38q-1,.19-4.84-2.4t-4-3.24l-1.66-8.39q2.19.91,5.18,5.85T761.51,296.86Z"/><path class="cls-5" d="M1012,106.41a27,27,0,0,1,0,4,12.23,12.23,0,0,0,.47,4.94c-.22,0-.58-.1-1.1-.45a52.68,52.68,0,0,0-.67,8.52,3.2,3.2,0,0,0-1.68,1.68l1,.65,1,.65c-.44,2.32-.52,3.57-.27,3.74a1.9,1.9,0,0,1-1.36-.07c-.22,0-.29.22-.23.55s0,.51-.23.55a1.9,1.9,0,0,0,1.36.07q-.2,2.39-.41,8.13l-1.54-2.71a18.22,18.22,0,0,0-.53,4.13q-.85,5.88-.3,18.85a114.45,114.45,0,0,1-.36,16.84,4.08,4.08,0,0,1,.84.84,5.62,5.62,0,0,1-.46,2.77l.51.91q-1,3.55.44,3.94a2.62,2.62,0,0,0-1-.13q-.59.45.89,4.52a7.4,7.4,0,0,1-.78,2.84q.24,4.66.81,14.27,4.23,40.1,6.09,49.45a9.5,9.5,0,0,0,.93,2.16,9.69,9.69,0,0,1,.93,2.17,5.49,5.49,0,0,1,0,1.68,5.38,5.38,0,0,0-.07,1.36A92.67,92.67,0,0,0,1020,277.6a3.48,3.48,0,0,0-.39,1.42q2.45,2.2,1.34,6.78a1.92,1.92,0,0,0,1.36.07q1,4.84,0,5l-.84.84q.06.32.58.39c.34,0,.58.39.71,1a3.43,3.43,0,0,1-.39,1.42,15.76,15.76,0,0,0,.89,4.52,2.59,2.59,0,0,0-1.68,0c0-.22.2-.71.71-1.48l-1.85-9.36a10.37,10.37,0,0,1-3-1.43l1.61-.32-2.23-11.3a10.06,10.06,0,0,1-1.09-2.13,1,1,0,0,0-.45,1.1,3.17,3.17,0,0,1,.33-1.74,143.39,143.39,0,0,0-4.09-17.31q0-3.35-2.37-8.59c-.22,0-.54,1.23-1,3.55l2.11,10.65q1-.19,3,5.11l.19,1a22.44,22.44,0,0,0,.51,4.26q.83,4.19,2.43,10.59a9.33,9.33,0,0,0-3.48-2.33q-.33,3.42,3.14,12.46l.77,2.2q3.3-3.67-.12-5.68.83.84,3,3.1l-.45-.58q-.4,1.42-.85,3.35a10.66,10.66,0,0,0,.05,4.52c-.43.09-.58.45-.45,1.1,0,.21.37.48,1,.81s1,.59,1,.81a46.06,46.06,0,0,0,1.92,6.33q1.47,4.06,1.54,4.39a1.58,1.58,0,0,1-.26,1.23,1.35,1.35,0,0,0-.33.9,7.37,7.37,0,0,0-2.25-4.59,1.9,1.9,0,0,0-.07,1.36q.25,1.29-2.64-4.85l-1,1.55q.33-3.42-4.37-10.21.13-2.72-2.64-4.85a3.4,3.4,0,0,0,.06,2,31.91,31.91,0,0,0,1.83,4.17q1.7,3.52,1.77,3.84a13.85,13.85,0,0,1,0,2.68,14,14,0,0,0,.15,3.32,14,14,0,0,0-3-6.46,1.87,1.87,0,0,0-.39,1.42q-.32-1.62,3.4,8.72-4.68-15.18-4.17-12.59l.25,1.29a1.85,1.85,0,0,1,1.1.45,11.38,11.38,0,0,0-2.12-5.62c-.22,0-.58.45-1.1,1.22q1.62-3.68-5.26-14.73.45-1.1-1.54-4.39-.2.71-1.29.25,1,3.49,3.91,11.3c-.22,0-.29.23-.23.55s-.23.55-.87.67l-.77-.52a1.93,1.93,0,0,1-.07,1.36q2.63,6.53,2.44,5.56l1.21,6.13q-1.29-1.43-3.48-4a3.78,3.78,0,0,0-.78,2.84,15.15,15.15,0,0,0,2.76,5.49,1.06,1.06,0,0,0,.45-1.1,19.69,19.69,0,0,0,.19,2.65q2.7,5.17,2.38,3.56-.13-.65,1.28,4.78a13.71,13.71,0,0,1,.83,4.2,3,3,0,0,1,.58,1.23q-.52-.91-4.18-5.88a23,23,0,0,1,.25,4.65,164.83,164.83,0,0,1-9.7-20.22,5.09,5.09,0,0,0-2.51-2.52,10.75,10.75,0,0,0,.71-1.48q-.9-2.84-6.61-19.83-.19-1-2.06-1.94c-1.12,0-1.75.23-1.87.71a195.91,195.91,0,0,0,6.48,19.18A175.58,175.58,0,0,1,980.75,274a61.66,61.66,0,0,0-2-6.65l-.77-.52a17.88,17.88,0,0,0-2.1,2.93,18.52,18.52,0,0,1-2.1,2.93q1.16.78,1.23-.58a5.21,5.21,0,0,1-.91,2.19q1.16.78,1.48.71a.93.93,0,0,1-.71-.19l-1.29.25q-1.94.38-3.18,6a173.34,173.34,0,0,0-11.65,14l4.13.53a2.86,2.86,0,0,0,2-1.74,6.88,6.88,0,0,0,2.65-.19c-.6.34-.89,1.18-.84,2.52a17.52,17.52,0,0,1-7.43,3.15,14.88,14.88,0,0,1-3-.07,14.59,14.59,0,0,0-3-.07q-.65.13-6.39,2.44t-6.4,2.44a5.78,5.78,0,0,1-1.74-.33q-8.85,1.07-12.84-.48a16.63,16.63,0,0,0-6.32-4.79q-2.58-1.17-7-3-6.71-3.38-9.28-6.22a103.12,103.12,0,0,1-12.17-14l-1.93-1.3q-2.12-7.29-7.44-24-4.94-14.79-5-15.11l-6.51-32.93q-1.53-7.75-3.13-43a188.28,188.28,0,0,1,0-20.46q.59-5.48,2.49-16.26,1.9-14.13,7.21-22.9a4.14,4.14,0,0,0,.12,4q-2.27,5.48-3.65,17.16.84-.84,3.5-8.58t3-7.8a1.91,1.91,0,0,1,1.42.39,2.68,2.68,0,0,0,.36-.74,2.53,2.53,0,0,1,.36-.74,28.72,28.72,0,0,1-2.38-1.88l3.22,1a15.91,15.91,0,0,1-.06-2q0-1.68.65-1.81,1-.19,3.74,1.95L889,98.21l3.23,1,1.36-1.61-1,1.87a3.17,3.17,0,0,0,1,1.49,2.3,2.3,0,0,0,.26-1.23c0-.56.11-.86.33-.9a7.43,7.43,0,0,0,1.09,2.13q1.3-3.61,2.66-6.9,2-5.09,4.59-5.61a3,3,0,0,1,1.36.07A14,14,0,0,0,907,91.27a24.49,24.49,0,0,1-1.75,2.19q-1.23,1.42-4.86,10.19a1.89,1.89,0,0,0,.58,1.23,2.8,2.8,0,0,1,2.58-.51,32.61,32.61,0,0,0,2.34-8.52c.09.43.45.58,1.1.46A4,4,0,0,0,908.78,95c.73-.82,1.21-1.25,1.42-1.29a2.66,2.66,0,0,0,1,1.81l2.91-.57,2.91-.58a3.64,3.64,0,0,0-1.42-.39q-1.48-4.06,2.72-4.9,3.22-.64,3.8,3.95l.51,2.58a.87.87,0,0,0-.78,1.16L916,95.88a5,5,0,0,0-3.23,2.32,6.14,6.14,0,0,0,3.36,0,2.61,2.61,0,0,0,0,1.68,2.59,2.59,0,0,1-1.68,0,6.91,6.91,0,0,0-1.56,4,3.32,3.32,0,0,0,1.42.39,2.88,2.88,0,0,0,1-.71,3.44,3.44,0,0,1,1.68-.83c.21,0,.71.19,1.48.71a2.85,2.85,0,0,0,.84-2.52l1.94-.38c-1.38,2.07-2.29,3.14-2.72,3.22a40,40,0,0,1-5.55.76,53,53,0,0,0-.59,5.49l.19,1,3.3-3.67,2.06.26q.19,1-2.66,5.22c1,.69,1.57,1.15,1.61,1.36a2.59,2.59,0,0,1-1.68,0,2,2,0,0,0-1.07,2.22q.16,1.65.35,4.29-1,5.23-2.62,17.29-.21,5.75-.81,16.26l.38,1.94Q910,187.65,915,212.83l2.68,13.56q-.51-2.58,1.72,12.07a2.61,2.61,0,0,1,1,3.17q-.33,1.75-.72,3.16,1.28,3.1.44,3.94a7.61,7.61,0,0,0,1.54,2.71c-.08-.43-.24-.06-.45,1.09a39,39,0,0,0,3.8,5.62q-1,1.88-1,1.55.76,3.87,4,3.24l1.61-.32.58-.45a21.23,21.23,0,0,1-1.56,4,8.66,8.66,0,0,0,2.06,1.94,53.88,53.88,0,0,0,7.18-7.79,6.67,6.67,0,0,1-.06-1.16,2.26,2.26,0,0,1,.26-1.23l2.59-3.87c-.18,1.38-.48,3.23-.92,5.55q-.91,2.19-3.63,7.09c-.17.26.17.3,1,.13q.32-.06,1.46-2.8t1.78-2.87c.43-.08.56,0,.39.26l.65-.13c.43-.08.65-.68.65-1.81q2.08-4.77,5.58-12.51a152.29,152.29,0,0,0,7-15.48q.39-4.77,1.32-13.68,1.24-7.29,1.63-5.35l-1.16-.78a5.34,5.34,0,0,0-.32-3.29,4,4,0,0,0-2.77-2.14c.86-1.29,1.18-1.91,1-1.87a2.37,2.37,0,0,1,2.52.85,28.48,28.48,0,0,0,2.51,2.52q.25-.38,2.47-6.19t4.14-6.19a3.17,3.17,0,0,1,2.45.52q.19-.7.52-2.45a20.83,20.83,0,0,1,.19,2.65,11.14,11.14,0,0,1-.13,2.71,3,3,0,0,0-.77-2.2l-1.3,5.29a1.87,1.87,0,0,1-1.42-.39,20.87,20.87,0,0,0-.33,5.1,31.85,31.85,0,0,0-1.75,3,.42.42,0,0,1,.13.65.93.93,0,0,0,.45.58q1.3-3.61,6.73-10.05.58-3.8-1-10.2a26.69,26.69,0,0,1-.82-10.91,90,90,0,0,1-.11-9q.14-4.38.67-13.55a1.06,1.06,0,0,0-.84-.84q.46-2.77.85-5.87a45.79,45.79,0,0,1-.57-6.26,8.12,8.12,0,0,1,.59-3.81l-.45-2.26q.13.65.66-8.52l0-7c-.22,0-.35-.1-.42-.42a1.14,1.14,0,0,0-.48-.74q-.91,2.19-1,8.58t-1.05,8.26q1.47,7.43-.41,9.81-.13-.64,1.67,1.68c-.52-.34-.88-.5-1.1-.45l.38,1.94a.87.87,0,0,0-1.16-.78,7.76,7.76,0,0,0-.33,3.42,1.16,1.16,0,0,0,1.55,1,2.1,2.1,0,0,0,.32,1.61,2.85,2.85,0,0,0-1.75,1.35,15.81,15.81,0,0,1-.53,7.49q.38.26.31,6.65a26.43,26.43,0,0,1,1.15,5.81q-.2,2.39-.47,7.81a8.15,8.15,0,0,1-1.35-3.42q-.89-4.52-1.87-28.15-.47-21-.53-24.72a149.63,149.63,0,0,1,4.06-28.65q.19-.71-.83-5.87,1.16.78,1.73,3.68c.51.35.88.5,1.1.45a7.5,7.5,0,0,1,.2-2.39,3,3,0,0,0,.77,2.2,2.56,2.56,0,0,0,.07-3,1.34,1.34,0,0,0,.13-1,1.32,1.32,0,0,0,.51.9,4.94,4.94,0,0,0-1-3.16,3.8,3.8,0,0,0,2.33-1.8,1.42,1.42,0,0,0-.25-1.29q3.17-4.32,4.14-4.51-1.94.38,2.77.46a8.14,8.14,0,0,0,1.93,3,15.2,15.2,0,0,1,2.46-2.83,21.22,21.22,0,0,0-2.77-3.81,7.77,7.77,0,0,1,2.58.33,7.43,7.43,0,0,0,2.9.26q2.43,5.56,4.38,5.17a5.39,5.39,0,0,0,1.55-.64l1.61-.32q.64-.13,2.84,2.46,3,3.43,3.86,4.27a7.87,7.87,0,0,1-1.55,2.32,56.74,56.74,0,0,0,7.41,5.24,12.79,12.79,0,0,0,2.9,4.46,30.16,30.16,0,0,0,.27-5.42A18,18,0,0,1,1012,106.41ZM872.18,127l-.65.13-.33,1.74.71.2Zm.59-3.81-.65.13-.52,2.45.71.2Zm.58-.45-.25-1.29-1,.19.25,1.29Zm14.2-58.83-2.91,2.25a4.48,4.48,0,0,1-2.58-2.85q.19,1,1.36-3.29-.65.13,3.61,1.3Zm-1.87,27.88-.65.13-1-1.49.58-.45Zm7.53,9.25q-2.85,4.26-2.91,3.93a9.93,9.93,0,0,0,1.61,3A20.7,20.7,0,0,0,893.21,101.06Zm12.93,79a3.81,3.81,0,0,0-1.8-2.33l4.36,45.77q4.67,20.21,4.22,18-2.17-11-4.46-29.31l.52-.77a2.64,2.64,0,0,1,.64,1.55l-.45-2.26a.93.93,0,0,1-.71-.2,40.72,40.72,0,0,1-.8-17.62q-.91-1.16-1.34-5.1a22.27,22.27,0,0,1-.18-4.33C906.18,181.35,906.19,180.24,906.14,180Zm3.48-89.26a13.49,13.49,0,0,1-2.13,1.09c.21,0,.11-1.14-.32-3.29Q909.37,89.48,909.62,90.76Zm5.45,15.7-1.36,1.61-.77-.52,1.68-1.68Zm2.58,30L915.33,140l-.39-.26,2.33-3.48Zm5.15-24.84a4.71,4.71,0,0,1-3.17,2.64l-1,.19a1,1,0,0,1-.58.45,5.32,5.32,0,0,1-.58-1.23,3,3,0,0,1,1.36.07l1.29-.26A16.49,16.49,0,0,0,922.81,111.64ZM927,299a6.13,6.13,0,0,0-4.13-.52c.21,1.07.83,1.4,1.87,1Zm2.08-35.3-.45-.58-1,1.55.77.52Zm47.7-181.2-.65.13c-.43.09-.62.24-.58.45a.58.58,0,0,1-.52.77c-.43.09-.72,0-.87-.16s-.44-.25-.87-.16c-.22,0-.49.38-.81,1a1.79,1.79,0,0,1-1.13,1.06,5.37,5.37,0,0,1-1.68,0l-1.29.25q5-3.67,3.69-3.41A19.21,19.21,0,0,1,976.77,82.52ZM975,285.5q-3,5.28-4.92,5.67a1.33,1.33,0,0,0-.91.51l-.64.13A64.56,64.56,0,0,1,975,285.5Zm3.24-5.67-1.49,2.64L976,282l1.88-2.38Zm1.09-86.1a2.48,2.48,0,0,1-.36,1.58,2.47,2.47,0,0,0-.36,1.58,5.28,5.28,0,0,0,.58,1.23,28.26,28.26,0,0,1-.92,5.55,3.64,3.64,0,0,1-.64-1.55l.57,2.91q2.78-2.89,2.14-6.13Zm.72,83.39-1,1.87-.71-.2.59-2.13Zm17.74,3.2q-.06-.33-.25-3c-.13-1.77-.23-2.86-.31-3.29q-2.31-8.26-6.21-24.6.06-1.35.07-3-1.22-4.45-2.12-5.62l-4-20.34-.32-1.61a2.58,2.58,0,0,0-.9.51,2.52,2.52,0,0,1-.91.51,13.49,13.49,0,0,1,1.41,7.1q.44,5.62.79,7.39a5.72,5.72,0,0,1-.75,3.84,5.9,5.9,0,0,0-.72,4,1.49,1.49,0,0,1,.23-1.39,2.44,2.44,0,0,0,.62-1.13,10.66,10.66,0,0,1-.78,4.52l4.09,20.66q.77,3.87,6.81,15.76a1.08,1.08,0,0,1-1.36-.07,28.33,28.33,0,0,0,1.09,3.81l.7,3.55a2.11,2.11,0,0,1,1.67,1.68c.13.65-.24,1.05-1.1,1.22a2.4,2.4,0,0,1,2.38,1.88q-.78,1.16-.71,1.48l.32-.06c0-.22.15-.36.58-.45s.92.71,1.48,2.39c.12,2.88.12,4,0,3.36a2.9,2.9,0,0,1,1.36.07l-.25-1.29a1.34,1.34,0,0,0,1,.13,3.4,3.4,0,0,1-.06-2l1.35,1.75A131.16,131.16,0,0,1,997.77,280.32ZM991.25,42.08q-.71,1.49-2,8.77a26.91,26.91,0,0,1-5.49-.59L983.55,49a3.38,3.38,0,0,1,1.62-3.67,30.21,30.21,0,0,0,4.14-2.83ZM986,239.38l-1,.19L984.7,238l1-.19Zm2.81-138.44-2.26.45a4,4,0,0,0,1.54,2.71l1.1-1.22Zm-.33,154.39-.39,1.42-.71-.19.39-1.42ZM995.4,91.92l-2.84-.78a2.91,2.91,0,0,1,.26-1.23c.22-.6.43-.92.65-1-.82-.73-1.25-1.21-1.29-1.42l-1.81,2.71a1.36,1.36,0,0,0-1-.13L990.1,94q2.51,2.52,2.83,4.14c.13.65,0,1-.45,1.1a5,5,0,0,0,2.06.26Q995.78,93.86,995.4,91.92Zm-3.54,206-.65.13-.9-1.16.58-.45Zm3.09,5.43c-.13-.65-.41.19-.84,2.52a14.18,14.18,0,0,1,1.35,3.42,91.84,91.84,0,0,0-3.53-9.37l.65-.13A29.55,29.55,0,0,1,994.95,303.36ZM1005.3,80.9q1.47,7.43-5.31,8.77-3.87.77-5.15-5.69-1.09-5.49,1.89-7.42a30.14,30.14,0,0,0,3.88-2.44q1.94-.38,3.09,2.07a4.46,4.46,0,0,0,.67,2.55A9.54,9.54,0,0,1,1005.3,80.9Zm-8.75,230.53-.65.13-.26-1.29.65-.13Zm.27-3.74-.65.13-.26-1.29.65-.13Zm4.46-1.22-.25-1.29-1,.19.26,1.29Zm2.25,4.59-1.93-4.65-.65.13,1.93,4.65Zm.46-6.13-1,.19-.38-1.94,1-.19Zm2.18-206.08-.58.45L1003.46,97l.58-.45Zm-.93,195.44-.65.13-1-1.49.58-.45Zm2.08-67.51-.65.13-.2,2.39,1-.19Zm1.4,10.46-1.4-7.1a5.32,5.32,0,0,1-.2,2.39,5.73,5.73,0,0,0-.33,1.74,4,4,0,0,0,1,1.65A4.52,4.52,0,0,1,1008.71,237.23Zm22-190.87q1,4.84-7.89,7.6-3.17,4.32-4.46,4.57a4.7,4.7,0,0,1-3.93-1.24,44.76,44.76,0,0,1-3.67-3.3q-.71-.19-2-.62a2.13,2.13,0,0,1-1.51-1.71A24.21,24.21,0,0,1,1008.42,39q3.37-8.38,10.15-9.72,3.87-.77,5.39.11t3.76,7.14a10.45,10.45,0,0,0,1,5.17A42.61,42.61,0,0,1,1030.68,46.36Zm-21.13,193.39-.32-1.61-1,.19.32,1.61Zm2.66,52.48-.32-1.61a38.38,38.38,0,0,0-2.44-5.56q-1.23.57-1.1,1.22Q1008.41,286.6,1012.2,292.23Zm-2.09-49.57-.45-2.26-1,.19.45,2.26ZM1011,325l-1,.19-.32-1.61,1-.19Zm.83-116.24-.65.13-.26-1.29.65-.13Zm1.92-83.58q-.13,1-2.27,3.8a7.27,7.27,0,0,1,1.43-4.64C1012.93,124.57,1013.21,124.85,1013.73,125.2Zm1.64,108.37-1,.19-.64-3.23,1-.19Zm3.94,87.79q-3.41-5.36-4-8.59a6.46,6.46,0,0,1,.07-3Q1016.8,313.8,1019.31,321.35Zm-1.47-36.28-.65.13-1.16-2.46,1-.19Zm.66,25.37-1,.19-.45-2.26,1-.19Zm1.41,5.42-.65.13-.38-1.94.65-.13Zm6-278.62q-2.12-3.94-3.61-4.65l-1.29.25a30.74,30.74,0,0,1-.78,4.52c0,.22.56.56,1.55,1A10.19,10.19,0,0,1,1025.85,37.25Zm-3.08,264.3-1,.19-.45-2.26,1-.19Zm.16,17.75a9.64,9.64,0,0,0,.38,5.29,7.66,7.66,0,0,0-.61-1.39,7,7,0,0,1-.67-1.71Q1021.64,319.55,1022.93,319.3Zm3.28-22.45c-.22,0-.76.71-1.62,2a29.12,29.12,0,0,0-1.21-6.13A27.21,27.21,0,0,1,1026.2,296.84ZM1025,275.61l-.65.13-.84-.84.58-.45Zm.55,14.65-1,.19-.45-2.26,1-.19Zm.38,1.94-1,.19-.26-1.29,1-.19Zm.69,8.58-1,.19-.45-2.26,1-.19Zm.4-4.77-.65.13-.38-1.94.65-.13Zm.48-12.84-.65.13-.25-1.29.65-.13Zm.83,4.2c-.22,0-.67.58-1.36,1.61a3.15,3.15,0,0,0-.19-1.81c-.26-.74-.06-1.16.58-1.29a1,1,0,0,1-.2.71A.87.87,0,0,0,1028.35,287.36Zm0,17.1-.39,1.42-.71-.2.39-1.42Zm.67-10.2q1.48.71.45,2.26c.21,0-.26-.74-1.42-2.07Q1028.33,294.07,1029,294.27Z"/><path class="cls-6" d="M1247.44,182.3a89.65,89.65,0,0,1-2.67,8.58q-1.3,3.61-6.49,14.7-2.59,2.19-5.05,8.38.64-.13,2.2-2.45-2.66,6.9-4,7.16l-1.61-1.36q-11.46,11.66-16.29,12.62.32-.06-1.22-1.1c-.69,1-1.31,1.6-1.84,1.71s-.71.37-.52.77,0,.68-.68.8c-.43.09-.62,0-.55-.23s-.23-.29-.87-.16a19.34,19.34,0,0,0-3.88,2.45q-3.24,2.32-4.72,3.28-13.44,6.68-39,16.76a4,4,0,0,0-1.65,1,4.21,4.21,0,0,1-1.81,1q-.81.16-15,3.65t-15.21,3.68q-2.59.51-28.27-.45a23.61,23.61,0,0,0,5.87,2.53q8.89,2.6,13.42,1.71a2.72,2.72,0,0,0,1.39-.61,2.68,2.68,0,0,1,1.39-.61,5.12,5.12,0,0,1,5.87,2.53,4.08,4.08,0,0,0,1.65-1,4,4,0,0,1,1.65-1,1.65,1.65,0,0,1-.16.87,2,2,0,0,0-.1,1.19l1.61-.32c.56-1.68.91-2.19,1-1.55l.58,1.23,2.78-1.22c-1-.69-1.57-1.15-1.61-1.36q2.84-.9,17.69-3.83a10.64,10.64,0,0,1-.81,1,8.67,8.67,0,0,0-.81,1c-.18.25,0,.56.51.9a5.64,5.64,0,0,1,2.13-1.09q.9-.52-.06-2a12.43,12.43,0,0,1,4.78.4q1-.19.58-2.13-1.68,0,5.42-1.41t21.64-9.31a111.39,111.39,0,0,0,16.48-11.65l.57,2.91a2.86,2.86,0,0,0,3-.25q-1.56.64-5.82,4.51a1,1,0,0,0,1.1.45q-37.62,23.54-55.7,27.12a4.38,4.38,0,0,1-2.23-.23,4.34,4.34,0,0,0-2.23-.23,20.15,20.15,0,0,0-3.58,1.38,23.15,23.15,0,0,1-3.26,1.32,47.7,47.7,0,0,1-7.29-.4,47.14,47.14,0,0,0-7.29-.4,1.32,1.32,0,0,0-.9.52c0,.21-.15.36-.58.45q-7.11,1.41-18.52-.36-13.49-2-19.28-7.59.64-.13,5.29,3a33.46,33.46,0,0,1,5.1.33,26,26,0,0,1,5.09,2q3,1.75,4,1.56l2.58-.51,3.23-.64A167.71,167.71,0,0,1,1089,265a14.4,14.4,0,0,0-.83-2.52q-5-1.69-10-3.06-7.29-2.91-10.05-6.73-3.48-4-1.2-11.17-3.68-1.62-7.67-3.18-7-3-7.54-5.89a5.27,5.27,0,0,1,.2-2.39l2.91-.57q-.65.13,3.93,1.23l3.88-4.12a18.86,18.86,0,0,0-1.42-2.07q-.91-1.16-3.23-1-3.28-4.71-3.79-7.3l-.57-2.91q.64-.13,3.81-2.77-.45-.58-4-6.59,4.18,4.21,5.8,3.88l2.79-4.58a22.87,22.87,0,0,0-2-5,7.66,7.66,0,0,1,3.52.81,7.63,7.63,0,0,0,3.52.81q1-.19,2.85-2.58,1-.19,3.29,1.36c.43-.08,1.09-.66,2-1.74a9.65,9.65,0,0,1,2.26-2.12,6.18,6.18,0,0,0,1.29.58,6.66,6.66,0,0,1,1.29.58q-1.11,4.58-.79,6.19,1.4,7.1,5.6,6.27,2.58-.51,5.37-6.77,6.62,11.44,8.24,11.12c.43-.08.57-.22.42-.42s.1-.35.74-.48q1.29-.25,6.9,4.34a34.07,34.07,0,0,0,5.28,4.66q6.83,2.35,11.36,1.45l12.27-2.43a97.6,97.6,0,0,0,25.45-8.72q6.85-4.37,21-12.54,2.84-.89,8.72-3.4,4.78-3,11.39-12a14.8,14.8,0,0,0,.78-2.84q4.66-5.28,4.48-11.29-5.61-4.59-22.39-3-3.56.7-11.1,1.52a30.43,30.43,0,0,0-3.35-1.68q-6.65.31-21.11.15a71.93,71.93,0,0,1-11.84-1.35q-8.16-1.4-8.81-1.28-2.26.45-1.94,2.06l.19,1a10.25,10.25,0,0,1-3.48-.65l.06.32.25,1.29q7.93,4.47,21.74,6.44,23.81,3.34,24.13,3.28l.26,1.29a234.36,234.36,0,0,1-31.62-2.13l-2.32-1.55q-13.82-.29-28.25-10.52a75.81,75.81,0,0,0-5.85-9.24,66.85,66.85,0,0,1-10.06-5.06q-6.12-5.5-8.42-17.12-4.47-22.59,5.66-51.11,9.22-24.63,41-52.39a37,37,0,0,0,8.72-3.4q4.72-5,13.91-14.49Q1161.66,3,1175.54.26a16.94,16.94,0,0,1,7.81.47q4.26,1.17,4.83,4.08.51,2.59-10,10.37-15,10.69-16.16,11.58a8.93,8.93,0,0,0,6.07-1.54l-1.55,2.32q1.48.71,4.83,2.4-1.23.58-4.53,5.93l1.16.78a155.89,155.89,0,0,1,16-12.23l4-.12q-1.11,2.91-3.24,7.35-2.52,2.51-7.31,7.15-31.25,32-46.29,64.51-2.14,4.45-5.51,12.83-.33,1.75,2.9,4.46-1.29.26-3.29-1.36a11.53,11.53,0,0,0-1.88,4.06q4.58,2.79,13.16,3.77,12.06,1.64,15.68,2.94,12,3,11,3.19c.21,0,.75-.7,1.62-2,1.46.61,2.13,1.15,2,1.62q-.13,1-1.42,1.29-5.16-.65-17.61-2.56-10.78-1.9-11.74-1.7a7.87,7.87,0,0,0-5,3.67l.32,1.61q4.19.85,12.52,2.22a18.26,18.26,0,0,0-6.78,1.34l61.63,4.59a2.92,2.92,0,0,0,1.23-.58q-3.1-2.07-12.77-3.51l-13.81-2q-.9-1.16-2.64-3.17a2.11,2.11,0,0,1-1.61.32l-.19-1c-.09-.43.41-.75,1.49-1,.65-.13,1.77.21,3.39,1s2.74,1.13,3.39,1,.95-.3.91-.52.15-.36.58-.45q1-.19,4.61,1.27t4.29,1.33c.43-.08.57-.22.42-.42s.1-.35.74-.48q2.58-.51,14.9,2.42a29.73,29.73,0,0,1,14.25,7.58,4.26,4.26,0,0,1,1.15,4.13q2.58,1.17,7.61,2.86,1.42.4,9.15,5.57a.29.29,0,0,0,.39.26l-.25-1.29q-.13-.64-1.51-1.71c-.93-.71-1.43-1.28-1.51-1.71a20.61,20.61,0,0,0-8-6.31,34.33,34.33,0,0,1-6.41-3.6,33.82,33.82,0,0,1,14.51,3.84,18.61,18.61,0,0,1,7.4,8.6l7.13,15.7A34,34,0,0,1,1247.44,182.3ZM1143,264.69l-4.2.83a1.75,1.75,0,0,0-1.55,2.32l3.55-.7Q1141.41,267,1143,264.69Zm2.9,1.1-.26-1.29-1.94.38.25,1.29Zm8.67-129.2L1145,137.8l-.26-1.29,9.49-1.21Zm-5.31,127.53-2.77-.46.19,1,2.45.52Zm6.65-2-.19-1-1.94.38.19,1Zm22.35-250a7.78,7.78,0,0,1-2.19-.07,7.81,7.81,0,0,0-2.19-.07,41.18,41.18,0,0,0-8.07,3.27,23.2,23.2,0,0,0-2.78,2.06,8.36,8.36,0,0,1-2.52,1.67,7,7,0,0,0,.8,1.52,7.15,7.15,0,0,1,.8,1.52Q1167.69,18.26,1178.23,12.14Zm28.59.38q.83,4.2-4.34,5.22T1196.23,15l-.7-3.55,1.1.45q1-.19,3.65-1.06c1.78-.57,3-.93,3.65-1.06C1205.42,9.45,1206.4,10.38,1206.82,12.53Zm-6.75,228.79-.19-1-2.58.51.19,1ZM1212,237l-3.23.64-.25-1.29,3.23-.64Zm11.31-8.95-9.31,7.21-.19-1,9-7.15Zm7.18-7.79-6.28,7.28-.84-.84,6.28-7.28Zm2.27-5.48-.84-.84-1.75,3,.77.52Z"/></g></g></g></svg>