<svg xmlns="http://www.w3.org/2000/svg" viewBox="0 0 81.16 81.16"><defs><style>.cls-1{fill:#fff;}.cls-2,.cls-4{fill:none;}.cls-2{stroke:#1b8dc4;stroke-miterlimit:10;}.cls-3{fill:#1b8dc4;}</style></defs><title>资源 6</title><g id="图层_2" data-name="图层 2"><g id="Fitnessveranstaltung_gelb" data-name="Fitnessveranstaltung gelb"><g id="Text_unten" data-name="Text unten"><circle class="cls-1" cx="40.58" cy="40.58" r="40.58"/><circle class="cls-2" cx="40.58" cy="40.58" r="37.85"/><path class="cls-3" d="M32.2,25.7a3.11,3.11,0,0,1,1.77.55l11-5.71a20.24,20.24,0,0,0-16.51,4l2,1.67A3.09,3.09,0,0,1,32.2,25.7Z"/><path class="cls-3" d="M46.8,55.71a3.27,3.27,0,0,1-3.27-3.27,3.31,3.31,0,0,1,0-.44l-12-4.47a2.93,2.93,0,0,1-2.48,1.37A2.89,2.89,0,0,1,28,48.66l-2.46,5.11a20.36,20.36,0,0,0,29.27,1.92L49.66,54A3.24,3.24,0,0,1,46.8,55.71Z"/><path class="cls-3" d="M26.15,46A2.93,2.93,0,0,1,29,43l1.87-11.42a3.06,3.06,0,0,1-1.37-4.32l-2.11-1.72.43-.52a20.36,20.36,0,0,0-3.33,27.42l2.28-4.73A2.93,2.93,0,0,1,26.15,46Z"/><path class="cls-3" d="M35.31,28.82c0,.1,0,.19,0,.29l8.18.91a3.72,3.72,0,0,1,3.59-2.75l.18,0,1.61-5.58c-.56-.24-1.14-.45-1.73-.63L35,27.39A3.1,3.1,0,0,1,35.31,28.82Z"/><path class="cls-3" d="M32,46a1.23,1.23,0,0,1,0,.16l12.08,4.5a3.28,3.28,0,0,1,2.72-1.45,3.16,3.16,0,0,1,.56.06L49,45.09a2.92,2.92,0,0,1-1.16-2.32,1.89,1.89,0,0,1,0-.24l-3.79-.67a3.27,3.27,0,0,1-5.7.59l-6.46,2.81A2.94,2.94,0,0,1,32,46Z"/><path class="cls-3" d="M37.79,40.58a3.27,3.27,0,0,1,3.27-3.27,3.18,3.18,0,0,1,1,.17l2.32-3.9a3.74,3.74,0,0,1-1-2.09l-8.57-1a3.13,3.13,0,0,1-2.5,1.39L30.43,43.36a3,3,0,0,1,.77.6l6.65-2.88A3.3,3.3,0,0,1,37.79,40.58Z"/><path class="cls-3" d="M50.19,22.33l-1.53,5.31a3.7,3.7,0,0,1,.18,6.6l1.57,5.63a3.18,3.18,0,0,1,.37,0,2.93,2.93,0,0,1,2.08,5l5.32,6.85a20.37,20.37,0,0,0-8-29.35Z"/><path class="cls-3" d="M45.58,34.42l-2.26,3.8a3.22,3.22,0,0,1,1,2.18l4,.71a2.87,2.87,0,0,1,.69-.7l-1.6-5.74c-.13,0-.26,0-.39,0A3.77,3.77,0,0,1,45.58,34.42Z"/><path class="cls-3" d="M50.78,45.69a2.67,2.67,0,0,1-.42,0L48.71,49.8a3.24,3.24,0,0,1,1.36,2.64c0,.05,0,.11,0,.16l5.88,1.94c.48-.51.93-1,1.36-1.61l-5.68-7.36A3,3,0,0,1,50.78,45.69Z"/><path class="cls-3" d="M28.31,24.44l-.5.61c.2-.17.41-.35.63-.51Z"/><path class="cls-4" d="M66.85,32.18c-.3-.88-2.14-1.81-6.39-1.81-.47,0-1,0-1.48,0a20.33,20.33,0,0,1,2.59,8.16C65.45,35.86,67.29,33.48,66.85,32.18Z"/><path class="cls-4" d="M16.41,49.58c.3.88,2.14,1.81,6.39,1.81.32,0,.67,0,1,0A20.33,20.33,0,0,1,21,43.73C17.13,46.57,16.09,48.64,16.41,49.58Z"/><path class="cls-3" d="M22.8,51.39c-4.25,0-6.09-.94-6.39-1.81s.71-3,4.55-5.85a20.82,20.82,0,0,1-.26-2.89l-.28.19c-5.08,3.53-7.29,6.77-6.39,9.38.8,2.33,3.75,3.51,8.77,3.51.87,0,1.8,0,2.76-.12a20.59,20.59,0,0,1-1.76-2.43C23.47,51.36,23.12,51.39,22.8,51.39Z"/><path class="cls-3" d="M69.22,31.36c-.8-2.33-3.75-3.5-8.77-3.5-1,0-2,.06-3.1.15A20.61,20.61,0,0,1,59,30.42c.5,0,1,0,1.48,0,4.25,0,6.09.93,6.39,1.81.45,1.3-1.39,3.68-5.28,6.4.06.65.1,1.3.1,2,0,.35,0,.69-.05,1C67,38.1,70.28,34.42,69.22,31.36Z"/><path class="cls-3" d="M61.56,38.58a73.53,73.53,0,0,1-17.78,8.56c-7.38,2.55-14.57,4-20,4.22a20.59,20.59,0,0,0,1.76,2.43,79.07,79.07,0,0,0,19-4.27,81.94,81.94,0,0,0,17-7.94c0-.34.05-.68.05-1C61.66,39.88,61.63,39.22,61.56,38.58Z"/></g></g></g></svg>